<svg width="165" height="133" viewBox="0 0 165 133" fill="none" xmlns="http://www.w3.org/2000/svg">
<path d="M164.128 60.2269C163.239 58.2394 160.905 57.1613 156.879 56.9326C152.329 57.1969 147.641 57.3582 143.109 57.5119C119.674 58.3163 95.4413 59.1469 77.0401 74.3757C73.1701 77.2819 70.052 81.0582 67.037 84.7107C64.4307 87.8682 61.7363 91.1307 58.5507 93.8944C54.5157 96.9694 50.1713 99.7388 45.572 102.671C39.2701 106.689 32.7545 110.843 26.55 116.102L26.0982 116.421C25.1044 117.131 22.7645 118.806 20.8013 119.7C21.1014 118.517 21.8813 116.908 22.4495 115.733C22.9014 114.799 23.2407 114.073 23.4713 113.462C24.9413 110.959 26.3757 108.439 27.7764 105.896C27.9957 105.536 28.2226 105.167 28.4382 104.811C32.9139 97.4232 37.142 90.4444 42.8645 85.8919C43.847 85.185 44.8145 84.51 45.7557 83.8519C49.0651 81.5382 52.1888 79.3538 54.5364 76.8226C70.3857 61.8694 71.5988 38.3663 70.6932 17.3494C70.4757 11.9457 69.3264 2.56131 64.0876 0.427561C60.9657 -0.839939 57.0563 0.705062 52.3745 5.13756C48.2232 10.4363 43.1738 14.8088 38.2895 19.0351C34.2676 22.5169 30.1088 26.1188 26.5013 30.2551C16.4663 45.5382 15.8214 66.2832 24.8926 83.1694C28.7176 89.1488 28.0163 96.9563 22.8826 104.055C12.1501 124.961 17.2894 120.99 -2.70557 144.538C-9.44244 152.205 -17.5368 158.786 -25.9555 164.758C-32.698 169.95 -42.2061 175.772 -53.3005 181.463C-65.878 144.784 -94.9443 112.007 -128.871 99.6863C-174.562 84.0169 -200.771 124.005 -203.284 165.124C-206.812 244.352 -107.917 215.724 -60.9299 191.938C-54.5624 211.545 -53.2405 231.975 -59.848 250.142C-63.2061 260.614 -69.1068 270.201 -76.4456 278.604C-76.5412 278.672 -76.6461 278.736 -76.7324 278.807C-76.8993 278.979 -77.0662 279.154 -77.233 279.326C-77.7224 279.684 -78.1537 280.129 -78.5362 280.534C-79.3049 281.361 -80.0868 282.208 -80.8799 283.069C-88.7587 291.041 -97.2787 298.699 -107.848 303.054C-125.317 307.343 -122.469 289.491 -117.229 278.921C-114.307 272.698 -104.961 254.121 -119.07 259.358C-127.431 263.364 -133.59 271.071 -139.791 278.374C-141.812 280.359 -144.531 284.008 -147.397 283.493C-149.329 282.799 -148.318 277.029 -147.778 274.723C-145.337 267.394 -145.761 257.698 -155.947 261.536C-164.805 266.406 -169.701 278.233 -176.404 285.596C-177.849 287.076 -179.992 289.247 -182.046 288.758C-183.508 288.369 -183.461 285.602 -182.788 282.304C-181.729 276.559 -178.526 270.654 -178.087 264.797C-177.737 261.203 -179.486 259.616 -181.425 260.942C-183.742 262.521 -185.338 267.722 -186.206 270.838C-187.284 274.862 -188.317 278.788 -189.337 282.761C-190.954 284.882 -192.442 287.173 -193.305 287.933C-204.93 303.208 -232.573 312.819 -232.543 284.582C-233.432 276.129 -238.046 279.75 -241.584 285.934C-258.881 313.157 -273.351 298.127 -259.039 273.375C-253.841 263.522 -241.451 253.851 -232.292 264.683C-227.387 269.858 -224.989 264.529 -229.378 258.84C-241.108 244.558 -259.386 258.803 -265.359 272.252C-266.957 275.901 -268.502 279.774 -269.574 283.751C-277.127 292.943 -288.062 303.375 -300.962 303.06C-314.901 300.958 -310.26 283.669 -307.249 274.299C-304.521 266.196 -309.557 257.918 -318.514 261.906C-326.302 264.889 -332.721 269.882 -338.805 274.429C-341.839 276.829 -348.512 279.842 -347.366 272.816C-346.802 268.633 -342.906 261.739 -344.254 257.869C-346.091 253.774 -350.124 258.853 -350.863 261.504C-351.336 263.376 -355.378 274.628 -358.052 284.871C-358.708 285.623 -359.376 286.393 -360.043 287.147C-371.642 300.563 -406.027 324.617 -414.872 297.418C-421.176 274.922 -407.19 251.158 -401.092 230.919C-398.548 222.002 -404.619 217.866 -410.816 225.996C-416.342 234.056 -418.299 243.57 -422.938 252.276C-430.813 268.77 -440.047 282.981 -451.918 297.377C-461.207 308.004 -472.935 317.409 -486.302 322.969C-508.717 330.729 -530.083 316.744 -529.652 292.352C-529.569 281.469 -527.992 270.804 -526.174 260.158C-523.125 248.769 -517.166 237.78 -512.854 226.734C-507.465 213.684 -499.511 201.709 -490.984 190.659C-483.182 179.177 -474.33 168.602 -463.571 159.941C-448.35 144.921 -412.264 128.475 -392.434 139.673C-371.214 150.525 -376.742 173.141 -382.041 191.739C-383.122 197.209 -381.294 200.777 -378.405 198.379C-376.624 196.958 -375.272 194.301 -374.396 192.081C-370.74 182.143 -368.256 170.471 -369.287 159.551C-373.132 137.432 -396.964 126.15 -417.501 129.549C-427.213 130.532 -435.949 135.804 -444.982 139.453C-479.751 156.516 -503.88 191.184 -519.879 225.555C-533.856 251.642 -549.216 301.941 -522.157 324.054L-521.612 324.493C-495.831 344.702 -464.771 322.744 -446.906 302.216C-441.039 296.196 -436.873 289.658 -431.966 282.876C-429.754 279.851 -424.759 273.653 -423.416 280.451C-422.552 291.422 -423.817 304.258 -413.415 311.383C-395.394 323.933 -373.837 310.206 -360.189 295.23C-360.949 301.369 -359.886 304.744 -354.827 300.786C-346.412 290.7 -337.766 279.004 -326.961 273.122C-323.368 271.138 -315.238 265.065 -313.702 271.804C-313.297 275.803 -315.392 279.939 -316.446 283.789C-319.569 292.678 -316.71 303.553 -307.695 307.23L-307.072 307.472C-293.406 311.376 -280.663 302.828 -270.982 292.656C-271.041 294.454 -270.952 296.256 -270.66 298.05C-269.081 305.61 -260.257 308.286 -253.909 304.763C-247.117 301.335 -240.966 294.242 -234.66 300.878C-222.579 314.719 -203.451 307.749 -192.502 295.532C-192.609 295.974 -192.714 296.394 -192.821 296.843C-193.581 300.666 -195.028 305.638 -192.816 309.03L-192.534 309.328C-185.289 314.573 -169.275 282.771 -163.277 276.806C-154.236 265.091 -151.459 270.199 -156.092 282.306C-157.852 287.612 -162.004 299.449 -152.685 297.771C-143.196 294.761 -137.252 284.951 -130.839 277.584C-126.476 272.666 -124.125 274.44 -125.507 281.559C-128.053 290.205 -128.282 301.346 -122.713 306.63C-122.721 306.656 -122.752 306.756 -122.752 306.756C-122.668 306.788 -122.578 306.808 -122.492 306.84C-119.762 309.285 -115.71 310.376 -109.941 309.197C-97.1793 307.129 -86.7974 297.219 -78.193 288.285C-76.0649 286.076 -74.7431 285.306 -70.6593 280.836C-63.0806 272.739 -56.698 263.304 -52.6405 252.769C-44.5818 232.041 -45.0618 208.931 -51.5587 186.911C-20.7674 171.698 3.02448 144.602 3.58319 144.036C25.6913 120.422 38.8332 110.968 57.3094 104.826C66.7032 101.085 75.7294 102.619 85.2826 104.243C89.3438 104.933 93.5419 105.647 97.892 105.924C103.914 105.596 111.111 105.049 118.95 103.453C131.509 98.9982 141.497 89.3344 152.07 79.1007C154.416 76.8319 156.782 74.5407 159.298 72.1819C163.802 66.5138 165.293 62.8257 164.132 60.2288L164.128 60.2269ZM-191.244 148.933C-168.195 67.1101 -87.9093 120.12 -62.9511 186.191C-122.171 213.848 -212.831 232.896 -191.244 148.933ZM144.109 63.9957C146.153 63.9901 148.264 63.9769 150.439 64.0538C150.833 64.2525 151.226 64.4269 151.616 64.5976C152.484 64.9763 153.253 65.3119 153.943 65.9326C153.37 67.9088 150.109 71.1544 147.206 74.04C146.113 75.1275 145.028 76.2076 144.146 77.1582C142.997 78.1069 141.868 79.0519 140.749 79.9875C135.791 84.1332 131.109 88.0482 126.062 91.3332C110.544 100.496 91.292 99.4651 77.8013 96.9582C77.2426 96.6038 76.4757 96.3563 75.6019 96.0769C74.8314 95.8294 73.9913 95.5613 73.3369 95.2144C73.3669 95.1188 73.3782 95.0138 73.3707 94.9013C74.9626 93.6844 77.3982 92.9475 79.2563 92.385C79.9426 92.1769 80.5576 91.9913 80.9907 91.8282C88.8901 89.4 96.8851 87.4144 103.941 85.6613C109.954 84.1688 115.146 82.8788 118.899 81.6188C119.839 81.1032 119.736 80.4282 119.648 80.1638C119.46 79.6032 119.072 78.4332 108.623 79.9144C101.393 81.0582 94.0745 82.9013 86.3289 84.8532L84.7988 85.2394C83.4188 85.5432 81.782 86.0082 80.0495 86.4994C76.2582 87.5738 69.9113 89.3701 68.8594 88.1082C68.5913 87.7857 68.7451 86.9513 69.2701 85.86C83.1639 70.3669 104.498 63.3488 136.316 63.8082C138.686 64.0238 141.319 64.0144 144.107 63.9975L144.109 63.9957ZM49.712 77.0869C48.7783 77.7507 46.3013 79.5207 45.6282 79.2038C45.5663 79.1738 45.4426 78.9938 45.3901 78.5194C46.9126 70.9501 49.1458 63.3544 51.3038 56.0082C53.5445 48.3844 55.8338 40.5488 57.3845 32.6213C57.6657 31.5957 57.9638 30.5738 58.2338 29.5444C58.2338 29.5444 58.0632 29.4975 57.9601 29.4675C58.1045 28.6088 58.2526 27.7519 58.3763 26.8913C58.3857 26.8182 58.3876 26.7432 58.3801 26.6701C58.2714 25.5169 58.2901 25.2019 58.2789 25.2338C58.3914 24.7782 58.1514 24.3076 57.7126 24.1369C57.2739 23.9644 56.7751 24.1444 56.5463 24.5569C55.277 26.8651 54.3976 30.6376 53.8145 33.1351L53.73 33.4988C49.9538 47.7769 45.2739 61.0594 39.4557 76.5057L39.0358 77.3232C38.2745 78.8213 37.2395 80.8594 35.9382 82.5844C34.9238 83.1938 33.9882 83.2407 33.002 82.7326C28.3388 80.3307 24.7632 66.7126 24.5701 62.5538C24.0507 44.0494 37.5301 29.5463 49.4195 16.7513L49.6464 16.5076C50.9814 15.5457 52.2713 14.1319 53.6345 12.6394C55.8488 10.2113 58.3276 7.49255 61.2338 6.66568C61.3726 6.8813 61.5638 6.99006 61.6651 7.03694C61.7814 7.09131 62.0363 7.17569 62.3363 7.09131C63.2944 8.72819 63.6863 11.0776 64.037 13.1869C64.2095 14.2257 64.3745 15.2082 64.5957 16.0219C64.9632 38.7919 64.1739 60.5269 50.8914 76.2694C50.5557 76.4832 50.1507 76.7719 49.7063 77.0888L49.712 77.0869Z" fill="url(#paint0_linear_1984_2646)"/>
<defs>
<linearGradient id="paint0_linear_1984_2646" x1="-537.067" y1="166.256" x2="164.507" y2="166.256" gradientUnits="userSpaceOnUse">
<stop stop-color="#408E85"/>
<stop offset="0.19" stop-color="#487F6B"/>
<stop offset="0.393" stop-color="#4E7359"/>
<stop offset="0.602" stop-color="#516D4D"/>
<stop offset="0.824" stop-color="#536B4A"/>
<stop offset="1" stop-color="#6B7C3C"/>
</linearGradient>
</defs>
</svg>
