<?xml version="1.0" encoding="UTF-8"?><svg id="Layer_1" xmlns="http://www.w3.org/2000/svg" xmlns:xlink="http://www.w3.org/1999/xlink" viewBox="0 0 120 80"><defs><style>.cls-1{fill:url(#linear-gradient);}.cls-2{fill:#7f7f7d;}</style><linearGradient id="linear-gradient" x1="17.794" y1="32.06" x2="117.006" y2="32.06" gradientUnits="userSpaceOnUse"><stop offset="0" stop-color="#3f8d84"/><stop offset=".179" stop-color="#477f6c"/><stop offset=".386" stop-color="#4e745a"/><stop offset=".598" stop-color="#526e4e"/><stop offset=".824" stop-color="#546c4b"/><stop offset="1" stop-color="#6c7d3d"/></linearGradient></defs><path class="cls-2" d="M32.785,65.374v4.222h-.962v-4.222h-1.512v-.817h3.985v.817h-1.512Z"/><path class="cls-2" d="M35.885,65.389c-.282,0-.519-.275-.519-.618s.237-.619.519-.619.512.275.512.619-.229.618-.512.618ZM35.427,69.596v-3.55h.909v3.55h-.909Z"/><path class="cls-2" d="M37.84,70.817c-.122.199-.206.321-.443.634l-.672-.473c.214-.259.282-.374.382-.595.137-.313.198-.626.198-1.038v-3.298h.909v3.993c-.153.389-.229.542-.374.779ZM37.756,65.389c-.282,0-.511-.275-.511-.618s.229-.619.511-.619.512.275.512.619-.229.618-.512.618Z"/><path class="cls-2" d="M41.933,69.596v-.481c-.13.206-.191.275-.359.382-.206.13-.428.199-.664.199-.84,0-1.458-.748-1.458-1.771,0-1.099.756-1.985,1.695-1.985.099,0,.206.015.313.038.191.046.275.076.473.214v-2.161h.909v5.566h-.909ZM41.933,67.473c0-.198-.023-.382-.046-.458-.061-.191-.313-.328-.596-.328-.504,0-.878.496-.878,1.168,0,.641.298,1.092.733,1.092.282,0,.565-.191.786-.534v-.939Z"/><path class="cls-2" d="M48.523,69.596h-.908l-1.191-3.55h.954l.718,2.351.023.153.023-.153.794-2.351h.954l-1.367,3.55Z"/><path class="cls-2" d="M52.463,69.695c-1.015,0-1.787-.809-1.787-1.878,0-1.061.771-1.871,1.787-1.871s1.786.809,1.786,1.871c0,1.069-.771,1.878-1.786,1.878ZM52.463,66.672c-.458,0-.84.519-.84,1.145,0,.634.382,1.153.84,1.153s.84-.519.84-1.153c0-.626-.382-1.145-.84-1.145Z"/><path class="cls-2" d="M57.053,69.695c-1.015,0-1.786-.809-1.786-1.878,0-1.061.771-1.871,1.786-1.871s1.786.809,1.786,1.871c0,1.069-.771,1.878-1.786,1.878ZM57.053,66.672c-.458,0-.84.519-.84,1.145,0,.634.382,1.153.84,1.153s.84-.519.84-1.153c0-.626-.382-1.145-.84-1.145Z"/><path class="cls-2" d="M61.932,67.13c-.099-.076-.176-.107-.275-.107-.145,0-.305.099-.443.267-.168.206-.244.412-.244.68v1.626h-.909v-3.55h.786l.038.779c.344-.603.565-.832.84-.832.191,0,.351.084.496.252l-.29.886Z"/><path class="cls-2" d="M67.888,69.596v-.481c-.13.206-.191.275-.359.382-.206.13-.428.199-.664.199-.84,0-1.458-.748-1.458-1.771,0-1.099.756-1.985,1.695-1.985.099,0,.206.015.313.038.191.046.275.076.473.214v-2.161h.909v5.566h-.909ZM67.888,67.473c0-.198-.023-.382-.046-.458-.061-.191-.313-.328-.596-.328-.504,0-.878.496-.878,1.168,0,.641.298,1.092.733,1.092.282,0,.565-.191.786-.534v-.939Z"/><path class="cls-2" d="M72.913,69.443c-.374.168-.756.252-1.168.252-1.054,0-1.718-.695-1.718-1.779,0-1.122.763-1.97,1.779-1.97.878,0,1.489.664,1.489,1.626v.389h-2.351c.015.298.038.42.122.565.153.259.458.428.794.428.137,0,.275-.015.42-.061.214-.061.351-.13.68-.336l.336.695c-.168.092-.298.153-.382.191ZM71.745,66.634c-.405,0-.679.275-.756.756h1.389c-.023-.542-.206-.756-.634-.756Z"/><path class="cls-2" d="M76.686,69.596v-.672l1.725-2.161h-1.725v-.718h2.878v.573l-1.825,2.26h1.825v.718h-2.878Z"/><path class="cls-2" d="M81.291,65.389c-.282,0-.519-.275-.519-.618s.237-.619.519-.619.512.275.512.619-.229.618-.512.618ZM80.832,69.596v-3.55h.909v3.55h-.909Z"/><path class="cls-2" d="M85.864,69.443c-.374.168-.756.252-1.168.252-1.054,0-1.718-.695-1.718-1.779,0-1.122.763-1.97,1.779-1.97.878,0,1.489.664,1.489,1.626v.389h-2.351c.015.298.038.42.122.565.153.259.458.428.794.428.137,0,.275-.015.42-.061.214-.061.351-.13.68-.336l.336.695c-.168.092-.298.153-.382.191ZM84.696,66.634c-.405,0-.679.275-.756.756h1.389c-.023-.542-.206-.756-.634-.756Z"/><path class="cls-2" d="M87.407,69.596v-5.566h.909v5.566h-.909Z"/><path class="cls-1" d="M116.953,17.066c-.126-.281-.456-.433-1.025-.466-.644.037-1.306.06-1.947.082-3.314.114-6.741.231-9.343,2.385-.547.411-.988.945-1.415,1.462-.368.446-.75.908-1.2,1.299-.571.435-1.185.827-1.835,1.241-.891.568-1.813,1.156-2.69,1.899l-.064.045c-.141.101-.471.337-.749.464.042-.167.153-.395.233-.561.064-.132.112-.235.145-.321.208-.354.411-.71.609-1.07.031-.051.063-.103.094-.154.633-1.045,1.231-2.031,2.04-2.675.139-.1.276-.195.409-.288.468-.327.91-.636,1.242-.994,2.241-2.115,2.413-5.438,2.285-8.41-.031-.764-.193-2.091-.934-2.393-.441-.179-.994.039-1.656.666-.587.749-1.301,1.368-1.992,1.965-.569.492-1.157,1.002-1.667,1.587-1.419,2.161-1.51,5.095-.228,7.483.541.846.442,1.95-.284,2.954-1.518,2.956-.791,2.395-3.619,5.725-.953,1.084-2.097,2.015-3.288,2.859-.953.734-2.298,1.558-3.867,2.362-1.779-5.187-5.889-9.822-10.687-11.564-6.461-2.216-10.168,3.439-10.523,9.254-.499,11.204,13.486,7.156,20.131,3.792.901,2.773,1.087,5.662.153,8.231-.475,1.481-1.309,2.837-2.347,4.025-.014.01-.028.019-.041.029-.024.024-.047.049-.071.073-.069.051-.13.114-.184.171-.109.117-.219.237-.331.358-1.114,1.127-2.319,2.21-3.814,2.826-2.471.606-2.068-1.918-1.327-3.413.413-.88,1.735-3.507-.26-2.767-1.182.567-2.053,1.656-2.93,2.689-.286.281-.67.797-1.076.724-.273-.098-.13-.914-.054-1.24.345-1.036.285-2.408-1.155-1.865-1.252.688-1.945,2.361-2.893,3.402-.204.209-.508.516-.798.447-.207-.055-.2-.446-.105-.913.15-.812.603-1.647.665-2.476.049-.508-.198-.733-.472-.545-.328.223-.553.959-.676,1.399-.152.569-.299,1.124-.443,1.686-.229.3-.439.624-.561.731-1.644,2.16-5.553,3.519-5.549-.474-.126-1.195-.778-.683-1.279.191-2.446,3.85-4.492,1.724-2.468-1.776.735-1.393,2.487-2.761,3.782-1.229.694.732,1.033-.022.412-.826-1.659-2.02-4.243-.005-5.088,1.897-.226.516-.444,1.064-.596,1.626-1.068,1.3-2.614,2.775-4.439,2.73-1.971-.297-1.315-2.742-.889-4.067.386-1.146-.326-2.317-1.593-1.753-1.102.422-2.009,1.128-2.87,1.771-.429.339-1.373.765-1.211-.228.08-.591.631-1.566.44-2.114-.26-.579-.83.139-.935.514-.067.265-.638,1.856-1.017,3.304-.093.106-.187.215-.282.322-1.64,1.897-6.503,5.299-7.754,1.453-.891-3.181,1.086-6.542,1.949-9.404.36-1.261-.499-1.846-1.375-.696-.781,1.14-1.058,2.485-1.714,3.716-1.114,2.333-2.419,4.342-4.098,6.378-1.314,1.503-2.972,2.833-4.862,3.619-3.17,1.097-6.191-.88-6.13-4.33.012-1.539.235-3.047.492-4.553.431-1.611,1.274-3.164,1.884-4.726.762-1.845,1.887-3.539,3.093-5.102,1.103-1.624,2.355-3.119,3.876-4.344,2.153-2.124,7.256-4.45,10.06-2.866,3.001,1.535,2.219,4.733,1.47,7.363-.153.773.106,1.278.514.939.252-.201.443-.577.567-.891.517-1.405.868-3.056.722-4.6-.544-3.128-3.914-4.723-6.818-4.243-1.374.139-2.609.884-3.886,1.401-4.917,2.413-8.329,7.316-10.592,12.176-1.976,3.689-4.148,10.802-.322,13.929l.077.062c3.646,2.858,8.038-.247,10.564-3.15.83-.851,1.419-1.776,2.113-2.735.313-.428,1.019-1.304,1.209-.343.122,1.551-.057,3.367,1.414,4.374,2.548,1.775,5.597-.167,7.527-2.284-.107.868.043,1.345.758.786,1.19-1.426,2.413-3.08,3.941-3.912.508-.281,1.658-1.139,1.875-.187.057.566-.239,1.15-.388,1.695-.442,1.257-.037,2.795,1.237,3.315l.088.034c1.933.552,3.735-.657,5.104-2.095-.008.254.004.509.046.763.223,1.069,1.471,1.447,2.369.949.96-.485,1.83-1.488,2.722-.549,1.708,1.957,4.413.972,5.962-.756-.015.063-.03.122-.045.185-.107.541-.312,1.244,0,1.724l.04.042c1.025.742,3.289-3.756,4.137-4.599,1.279-1.657,1.671-.934,1.016.778-.249.75-.836,2.424.482,2.187,1.342-.425,2.183-1.813,3.089-2.855.617-.695.95-.445.754.562-.36,1.223-.393,2.798.395,3.545-.001.004-.006.018-.006.018.012.004.025.008.037.012.386.346.959.5,1.775.333,1.805-.292,3.273-1.694,4.489-2.957.301-.312.488-.421,1.065-1.053,1.072-1.145,1.974-2.479,2.548-3.969,1.14-2.931,1.072-6.199.153-9.313,4.354-2.151,7.719-5.983,7.798-6.063,3.126-3.339,4.985-4.676,7.598-5.545,1.328-.529,2.605-.312,3.956-.082.574.098,1.168.198,1.783.238.852-.046,1.869-.124,2.978-.35,1.776-.63,3.188-1.997,4.684-3.444.332-.321.666-.645,1.022-.978.637-.802.848-1.323.683-1.69ZM66.698,29.61c3.26-11.571,14.613-4.075,18.143,5.269-8.375,3.911-21.195,6.605-18.143-5.269ZM114.122,17.599c.289,0,.588-.003.895.008.056.028.111.053.167.077.123.054.231.101.329.189-.081.28-.542.738-.953,1.147-.155.154-.308.306-.433.441-.162.134-.322.268-.48.4-.701.586-1.363,1.14-2.077,1.605-2.194,1.296-4.917,1.15-6.825.795-.079-.05-.187-.085-.311-.125-.109-.035-.228-.073-.32-.122.004-.013.006-.028.005-.044.225-.172.57-.276.832-.356.097-.029.184-.056.245-.079,1.117-.343,2.248-.624,3.245-.872.85-.211,1.584-.394,2.115-.572.133-.073.118-.168.106-.206-.026-.079-.081-.245-1.559-.035-1.023.162-2.057.422-3.153.698l-.216.055c-.195.043-.427.109-.672.178-.536.152-1.434.406-1.582.227-.038-.046-.016-.164.058-.318,1.965-2.191,4.982-3.184,9.481-3.118.335.03.708.029,1.102.027ZM100.773,19.45c-.132.094-.482.344-.578.299-.009-.004-.026-.03-.034-.097.215-1.07.531-2.145.836-3.184.317-1.078.64-2.186.86-3.307.04-.145.082-.29.12-.435,0,0-.024-.007-.039-.011.02-.121.041-.243.059-.364.001-.01.002-.021,0-.031-.015-.163-.013-.208-.014-.203.016-.064-.018-.131-.08-.155-.062-.024-.133.001-.165.059-.18.326-.304.86-.386,1.213l-.012.051c-.534,2.019-1.196,3.897-2.019,6.082l-.059.116c-.108.212-.254.5-.438.744-.143.086-.276.093-.415.021-.66-.34-1.165-2.266-1.192-2.854-.073-2.617,1.833-4.668,3.514-6.477l.032-.034c.189-.136.371-.336.564-.547.313-.343.664-.728,1.075-.845.02.031.047.046.061.052.016.008.052.02.095.008.135.231.191.564.241.862.024.147.048.286.079.401.052,3.22-.06,6.294-1.938,8.52-.047.03-.105.071-.168.116Z"/></svg>