<svg width="188" height="119" viewBox="0 0 188 119" fill="none" xmlns="http://www.w3.org/2000/svg">
<g clip-path="url(#clip0_1736_4987)">
<path d="M43.4868 107.443V115.404H41.6728V107.443H38.8223V105.902H46.3373V107.443H43.4868Z" fill="#7F7E7C"/>
<path d="M49.3345 107.471C48.802 107.471 48.3555 106.953 48.3555 106.305C48.3555 105.658 48.802 105.139 49.3345 105.139C49.867 105.139 50.299 105.657 50.299 106.305C50.299 106.953 49.867 107.471 49.3345 107.471ZM48.471 115.404V108.709H50.1845V115.404H48.471Z" fill="#7F7E7C"/>
<path d="M53.02 117.707C52.7895 118.081 52.631 118.312 52.185 118.902L50.918 118.009C51.321 117.52 51.4505 117.304 51.638 116.887C51.897 116.296 52.0125 115.706 52.0125 114.929V108.71H53.726V116.239C53.438 116.974 53.294 117.261 53.0205 117.708L53.02 117.707ZM52.8615 107.471C52.329 107.471 51.897 106.953 51.897 106.305C51.897 105.658 52.329 105.139 52.8615 105.139C53.394 105.139 53.826 105.657 53.826 106.305C53.826 106.953 53.394 107.471 52.8615 107.471Z" fill="#7F7E7C"/>
<path d="M60.7376 115.404V114.497C60.4926 114.885 60.3776 115.015 60.0611 115.216C59.6726 115.461 59.2551 115.591 58.8086 115.591C57.2251 115.591 56.0586 114.18 56.0586 112.251C56.0586 110.178 57.4841 108.508 59.2546 108.508C59.4416 108.508 59.6431 108.537 59.8446 108.58C60.2046 108.666 60.3631 108.724 60.7371 108.983V104.909H62.4506V115.404H60.7371L60.7376 115.404ZM60.7376 111.401C60.7376 111.027 60.6946 110.682 60.6511 110.537C60.5361 110.177 60.0606 109.918 59.5281 109.918C58.5781 109.918 57.8726 110.854 57.8726 112.121C57.8726 113.33 58.4341 114.18 59.2546 114.18C59.7871 114.18 60.3201 113.819 60.7376 113.172V111.401V111.401Z" fill="#7F7E7C"/>
<path d="M73.1641 115.404H71.4511L69.2051 108.709H71.0046L72.3581 113.143L72.4011 113.431L72.4441 113.143L73.9411 108.709H75.7406L73.1641 115.404Z" fill="#7F7E7C"/>
<path d="M80.5956 115.591C78.6806 115.591 77.2266 114.065 77.2266 112.049C77.2266 110.048 78.6806 108.522 80.5956 108.522C82.5106 108.522 83.9646 110.048 83.9646 112.049C83.9646 114.065 82.5106 115.591 80.5956 115.591ZM80.5956 109.89C79.7316 109.89 79.0121 110.869 79.0121 112.049C79.0121 113.244 79.7321 114.223 80.5956 114.223C81.4591 114.223 82.1791 113.244 82.1791 112.049C82.1791 110.869 81.4591 109.89 80.5956 109.89Z" fill="#7F7E7C"/>
<path d="M89.2479 115.591C87.3329 115.591 85.8789 114.065 85.8789 112.049C85.8789 110.048 87.3329 108.522 89.2479 108.522C91.1629 108.522 92.6169 110.048 92.6169 112.049C92.6169 114.065 91.1629 115.591 89.2479 115.591ZM89.2479 109.89C88.3839 109.89 87.6644 110.869 87.6644 112.049C87.6644 113.244 88.3844 114.223 89.2479 114.223C90.1114 114.223 90.8314 113.244 90.8314 112.049C90.8314 110.869 90.1114 109.89 89.2479 109.89Z" fill="#7F7E7C"/>
<path d="M98.4513 110.753C98.2643 110.609 98.1203 110.552 97.9328 110.552C97.6593 110.552 97.3568 110.739 97.0978 111.056C96.7808 111.445 96.6373 111.834 96.6373 112.337V115.404H94.9238V108.709H96.4068L96.4788 110.178C97.1268 109.041 97.5443 108.608 98.0623 108.608C98.4223 108.608 98.7243 108.766 98.9983 109.083L98.4513 110.753Z" fill="#7F7E7C"/>
<path d="M109.683 115.404V114.497C109.438 114.885 109.323 115.015 109.006 115.216C108.618 115.461 108.2 115.591 107.754 115.591C106.17 115.591 105.004 114.18 105.004 112.251C105.004 110.178 106.429 108.508 108.2 108.508C108.387 108.508 108.588 108.537 108.79 108.58C109.15 108.666 109.308 108.724 109.682 108.983V104.909H111.396V115.404H109.682L109.683 115.404ZM109.683 111.401C109.683 111.027 109.64 110.682 109.596 110.537C109.481 110.177 109.006 109.918 108.473 109.918C107.523 109.918 106.818 110.854 106.818 112.121C106.818 113.33 107.379 114.18 108.2 114.18C108.732 114.18 109.265 113.819 109.683 113.172V111.401V111.401Z" fill="#7F7E7C"/>
<path d="M119.157 115.116C118.451 115.433 117.731 115.591 116.954 115.591C114.967 115.591 113.715 114.281 113.715 112.236C113.715 110.12 115.154 108.522 117.069 108.522C118.725 108.522 119.877 109.774 119.877 111.588V112.323H115.443C115.472 112.884 115.515 113.115 115.673 113.388C115.961 113.878 116.537 114.194 117.171 114.194C117.43 114.194 117.689 114.165 117.962 114.079C118.365 113.964 118.624 113.835 119.244 113.446L119.877 114.756C119.56 114.929 119.316 115.044 119.157 115.116H119.157ZM116.954 109.818C116.191 109.818 115.673 110.336 115.529 111.243H118.149C118.106 110.221 117.761 109.818 116.954 109.818Z" fill="#7F7E7C"/>
<path d="M126.271 115.404V114.137L129.525 110.063H126.271V108.71H131.699V109.789L128.258 114.05H131.699V115.404H126.271Z" fill="#7F7E7C"/>
<path d="M134.956 107.471C134.423 107.471 133.977 106.953 133.977 106.305C133.977 105.658 134.423 105.139 134.956 105.139C135.488 105.139 135.92 105.657 135.92 106.305C135.92 106.953 135.488 107.471 134.956 107.471ZM134.092 115.404V108.709H135.806V115.404H134.092Z" fill="#7F7E7C"/>
<path d="M143.579 115.116C142.873 115.433 142.153 115.591 141.376 115.591C139.389 115.591 138.137 114.281 138.137 112.236C138.137 110.12 139.576 108.522 141.491 108.522C143.147 108.522 144.299 109.774 144.299 111.588V112.323H139.865C139.894 112.884 139.937 113.115 140.095 113.388C140.383 113.878 140.959 114.194 141.593 114.194C141.852 114.194 142.111 114.165 142.384 114.079C142.787 113.964 143.046 113.835 143.666 113.446L144.299 114.756C143.982 114.929 143.738 115.044 143.579 115.116H143.579ZM141.376 109.818C140.613 109.818 140.095 110.336 139.951 111.243H142.571C142.528 110.221 142.183 109.818 141.376 109.818Z" fill="#7F7E7C"/>
<path d="M146.488 115.404V104.909H148.202V115.404H146.488Z" fill="#7F7E7C"/>
<path d="M187.455 16.3476C187.218 15.8176 186.596 15.5301 185.522 15.4691C184.309 15.5396 183.059 15.5826 181.85 15.6236C175.601 15.8381 169.139 16.0596 164.232 20.1206C163.2 20.8956 162.368 21.9026 161.564 22.8766C160.869 23.7186 160.151 24.5886 159.301 25.3256C158.225 26.1456 157.067 26.8841 155.84 27.6661C154.16 28.7376 152.422 29.8451 150.768 31.2476L150.647 31.3326C150.382 31.5221 149.758 31.9686 149.235 32.2071C149.315 31.8916 149.523 31.4626 149.674 31.1491C149.795 30.9001 149.885 30.7066 149.947 30.5436C150.339 29.8761 150.721 29.2041 151.095 28.5261C151.153 28.4301 151.214 28.3316 151.271 28.2366C152.465 26.2666 153.592 24.4056 155.118 23.1916C155.38 23.0031 155.638 22.8231 155.889 22.6476C156.772 22.0306 157.605 21.4481 158.231 20.7731C162.457 16.7856 162.781 10.5181 162.539 4.91363C162.481 3.47263 162.175 0.970125 160.778 0.401126C159.945 0.0631255 158.903 0.475126 157.654 1.65713C156.547 3.07013 155.201 4.23612 153.898 5.36312C152.826 6.29162 151.717 7.25213 150.755 8.35513C148.079 12.4306 147.907 17.9626 150.326 22.4656C151.346 24.0601 151.159 26.1421 149.79 28.0351C146.928 33.6101 148.298 32.5511 142.966 38.8306C141.17 40.8751 139.011 42.6301 136.766 44.2226C134.968 45.6071 132.433 47.1596 129.474 48.6771C126.12 38.8961 118.369 30.1556 109.322 26.8701C97.1375 22.6916 90.1485 33.3551 89.4785 44.3201C88.5375 65.4476 114.91 57.8136 127.44 51.4706C129.138 56.6991 129.49 62.1471 127.728 66.9916C126.833 69.7841 125.259 72.3406 123.302 74.5816C123.277 74.5996 123.249 74.6166 123.226 74.6356C123.181 74.6816 123.137 74.7281 123.092 74.7741C122.962 74.8696 122.847 74.9881 122.745 75.0961C122.54 75.3166 122.331 75.5426 122.12 75.7721C120.019 77.8981 117.747 79.9401 114.928 81.1016C110.27 82.2451 111.029 77.4846 112.427 74.6661C113.206 73.0066 115.698 68.0526 111.936 69.4491C109.706 70.5176 108.064 72.5726 106.41 74.5201C105.871 75.0496 105.146 76.0226 104.382 75.8851C103.867 75.7001 104.136 74.1616 104.28 73.5466C104.931 71.5921 104.818 69.0066 102.102 70.0301C99.7395 71.3286 98.434 74.4826 96.6465 76.4461C96.261 76.8406 95.6895 77.4196 95.142 77.2891C94.752 77.1856 94.7645 76.4476 94.944 75.5681C95.2265 74.0361 96.0805 72.4616 96.1975 70.8996C96.291 69.9411 95.8245 69.5181 95.3075 69.8716C94.6895 70.2926 94.264 71.6796 94.0325 72.5106C93.745 73.5836 93.4695 74.6306 93.1975 75.6901C92.7665 76.2556 92.3695 76.8666 92.1395 77.0691C89.0395 81.1426 81.668 83.7056 81.676 76.1756C81.439 73.9216 80.2085 74.8871 79.265 76.5361C74.6525 83.7956 70.794 79.7876 74.6105 73.1871C75.9965 70.5596 79.3005 67.9806 81.743 70.8691C83.051 72.2491 83.6905 70.8281 82.52 69.3111C79.392 65.5026 74.518 69.3011 72.925 72.8876C72.499 73.8606 72.087 74.8936 71.801 75.9541C69.787 78.4051 66.871 81.1871 63.431 81.1031C59.714 80.5426 60.9515 75.9321 61.7545 73.4336C62.482 71.2726 61.139 69.0651 58.7505 70.1286C56.6735 70.9241 54.962 72.2556 53.3395 73.4681C52.5305 74.1081 50.751 74.9116 51.0565 73.0381C51.207 71.9226 52.246 70.0841 51.8865 69.0521C51.3965 67.9601 50.321 69.3146 50.124 70.0216C49.998 70.5206 48.92 73.5211 48.207 76.2526C48.032 76.4531 47.854 76.6586 47.676 76.8596C44.583 80.4371 35.4135 86.8516 33.055 79.5986C31.374 73.5996 35.1035 67.2626 36.7295 61.8656C37.408 59.4876 35.789 58.3846 34.1365 60.5526C32.663 62.7021 32.141 65.2391 30.904 67.5606C28.804 71.9591 26.3415 75.7486 23.176 79.5876C20.699 82.4216 17.5715 84.9296 14.007 86.4121C8.02953 88.4816 2.33202 84.7521 2.44702 78.2476C2.46902 75.3456 2.88952 72.5016 3.37452 69.6626C4.18752 66.6256 5.77652 63.6951 6.92652 60.7496C8.36352 57.2696 10.4845 54.0761 12.7585 51.1296C14.839 48.0676 17.1995 45.2476 20.0685 42.9381C24.1275 38.9326 33.7505 34.5471 39.0385 37.5331C44.697 40.4271 43.223 46.4581 41.81 51.4176C41.5215 52.8761 42.009 53.8276 42.7795 53.1881C43.2545 52.8091 43.615 52.1006 43.8485 51.5086C44.8235 48.8586 45.486 45.7461 45.211 42.8341C44.1855 36.9356 37.8305 33.9271 32.354 34.8336C29.764 35.0956 27.4345 36.5016 25.0255 37.4746C15.754 42.0246 9.31952 51.2696 5.05302 60.4351C1.32602 67.3916 -2.76998 80.8046 4.44552 86.7016L4.59102 86.8186C11.466 92.2076 19.7485 86.3521 24.5125 80.8781C26.077 79.2726 27.188 77.5291 28.4965 75.7206C29.0865 74.9141 30.4185 73.2611 30.7765 75.0741C31.007 77.9996 30.6695 81.4226 33.4435 83.3226C38.249 86.6691 43.9975 83.0086 47.637 79.0151C47.4345 80.6521 47.718 81.5521 49.067 80.4966C51.311 77.8071 53.6165 74.6881 56.498 73.1196C57.456 72.5906 59.624 70.9711 60.0335 72.7681C60.1415 73.8346 59.583 74.9376 59.302 75.9641C58.469 78.3346 59.2315 81.2346 61.6355 82.2151L61.8015 82.2796C65.446 83.3206 68.844 81.0411 71.4255 78.3286C71.41 78.8081 71.4335 79.2886 71.5115 79.7671C71.9325 81.7831 74.2855 82.4966 75.9785 81.5571C77.7895 80.6431 79.43 78.7516 81.1115 80.5211C84.333 84.2121 89.434 82.3536 92.3535 79.0956C92.325 79.2136 92.297 79.3256 92.2685 79.4451C92.066 80.4646 91.68 81.7906 92.27 82.6951L92.345 82.7746C94.277 84.1731 98.5475 75.6926 100.147 74.1021C102.558 70.9781 103.299 72.3401 102.063 75.5686C101.594 76.9836 100.487 80.1401 102.972 79.6926C105.502 78.8901 107.087 76.2741 108.797 74.3096C109.961 72.9981 110.588 73.4711 110.219 75.3696C109.54 77.6751 109.479 80.6461 110.964 82.0551C110.962 82.0621 110.954 82.0886 110.954 82.0886C110.976 82.0971 111 82.1026 111.023 82.1111C111.751 82.7631 112.832 83.0541 114.37 82.7396C117.773 82.1881 120.542 79.5456 122.836 77.1631C123.404 76.5741 123.756 76.3686 124.845 75.1766C126.866 73.0176 128.568 70.5016 129.65 67.6921C131.799 62.1646 131.671 56.0021 129.939 50.1301C138.15 46.0731 144.494 38.8476 144.643 38.6966C150.539 32.3996 154.043 29.8786 158.97 28.2406C161.475 27.2431 163.882 27.6521 166.43 28.0851C167.513 28.2691 168.632 28.4596 169.792 28.5336C171.398 28.4461 173.317 28.3001 175.408 27.8746C178.757 26.6866 181.42 24.1096 184.24 21.3806C184.865 20.7756 185.496 20.1646 186.167 19.5356C187.368 18.0241 187.766 17.0406 187.456 16.3481L187.455 16.3476ZM92.689 40.0026C98.8355 18.1831 120.245 32.3191 126.901 49.9381C111.109 57.3131 86.9325 62.3926 92.689 40.0026ZM182.117 17.3526C182.662 17.3511 183.225 17.3476 183.805 17.3681C183.91 17.4211 184.015 17.4676 184.119 17.5131C184.35 17.6141 184.555 17.7036 184.739 17.8691C184.586 18.3961 183.717 19.2616 182.943 20.0311C182.651 20.3211 182.362 20.6091 182.127 20.8626C181.82 21.1156 181.519 21.3676 181.221 21.6171C179.899 22.7226 178.65 23.7666 177.304 24.6426C173.166 27.0861 168.032 26.8111 164.435 26.1426C164.286 26.0481 164.081 25.9821 163.848 25.9076C163.643 25.8416 163.419 25.7701 163.244 25.6776C163.252 25.6521 163.255 25.6241 163.253 25.5941C163.678 25.2696 164.327 25.0731 164.823 24.9231C165.006 24.8676 165.17 24.8181 165.285 24.7746C167.392 24.1271 169.524 23.5976 171.405 23.1301C173.009 22.7321 174.393 22.3881 175.394 22.0521C175.645 21.9146 175.617 21.7346 175.594 21.6641C175.544 21.5146 175.44 21.2026 172.654 21.5976C170.726 21.9026 168.774 22.3941 166.709 22.9146L166.301 23.0176C165.933 23.0986 165.496 23.2226 165.034 23.3536C164.023 23.6401 162.331 24.1191 162.05 23.7826C161.979 23.6966 162.02 23.4741 162.16 23.1831C165.865 19.0516 171.554 17.1801 180.039 17.3026C180.671 17.3601 181.373 17.3576 182.116 17.3531L182.117 17.3526ZM156.944 20.8436C156.695 21.0206 156.035 21.4926 155.855 21.4081C155.839 21.4001 155.806 21.3521 155.792 21.2256C156.198 19.2071 156.793 17.1816 157.369 15.2226C157.966 13.1896 158.577 11.1001 158.99 8.98612C159.065 8.71262 159.145 8.44012 159.217 8.16562C159.217 8.16562 159.171 8.15312 159.144 8.14512C159.182 7.91612 159.222 7.68762 159.255 7.45812C159.257 7.43862 159.258 7.41863 159.256 7.39913C159.227 7.09163 159.232 7.00762 159.229 7.01612C159.259 6.89462 159.195 6.76912 159.078 6.72362C158.961 6.67762 158.828 6.72562 158.767 6.83562C158.428 7.45112 158.194 8.45713 158.038 9.12313L158.016 9.22013C157.009 13.0276 155.761 16.5696 154.209 20.6886L154.097 20.9066C153.894 21.3061 153.618 21.8496 153.271 22.3096C153.001 22.4721 152.751 22.4846 152.488 22.3491C151.245 21.7086 150.291 18.0771 150.24 16.9681C150.101 12.0336 153.696 8.16613 156.866 4.75413L156.927 4.68912C157.283 4.43262 157.627 4.05563 157.99 3.65763C158.581 3.01013 159.242 2.28512 160.017 2.06462C160.054 2.12212 160.105 2.15113 160.132 2.16363C160.163 2.17813 160.231 2.20063 160.311 2.17813C160.566 2.61463 160.671 3.24113 160.764 3.80363C160.81 4.08063 160.854 4.34263 160.913 4.55963C161.011 10.6316 160.801 16.4276 157.259 20.6256C157.169 20.6826 157.061 20.7596 156.943 20.8441L156.944 20.8436Z" fill="url(#paint0_linear_1736_4987)"/>
</g>
<defs>
<linearGradient id="paint0_linear_1736_4987" x1="0.469522" y1="44.6221" x2="187.556" y2="44.6221" gradientUnits="userSpaceOnUse">
<stop stop-color="#408E85"/>
<stop offset="0.19" stop-color="#487F6B"/>
<stop offset="0.393" stop-color="#4E7359"/>
<stop offset="0.602" stop-color="#516D4D"/>
<stop offset="0.824" stop-color="#536B4A"/>
<stop offset="1" stop-color="#6B7C3C"/>
</linearGradient>
<clipPath id="clip0_1736_4987">
<rect width="188" height="119" fill="white"/>
</clipPath>
</defs>
</svg>
