<svg width="198" height="151" viewBox="0 0 198 151" fill="none" xmlns="http://www.w3.org/2000/svg">
<path d="M34.2825 61.279C35.0054 61.7023 35.7623 62.5276 36.2672 63.0876C36.8108 63.6907 38.1417 64.5195 38.4751 64.9841C38.6122 65.1753 38.5591 65.5412 38.7168 65.6758C38.8316 65.7737 39.1463 65.7276 39.3101 65.93C39.4633 66.1193 39.8596 67.2301 40.0102 67.5558C40.6088 68.8509 41.2248 70.0761 41.7024 71.4342C41.7514 71.5736 42.0316 71.6929 42.0649 71.855C42.1121 72.0847 41.7876 72.2817 41.8419 72.543C41.879 72.722 42.5941 73.5856 42.7697 73.937C43.0513 74.5004 42.9047 75.1632 43.7041 75.6355C44.5752 76.1501 44.8105 74.9446 45.3424 74.6159C45.6041 74.4541 45.8604 74.6604 46.1176 74.6014C46.7493 74.4564 47.3324 73.6767 47.8298 73.3933C48.9564 72.7516 49.4093 73.0167 50.5349 73.004C51.7264 72.9906 51.6516 72.7816 52.9285 73.2292C55.2413 74.0397 55.0012 74.6477 56.3321 76.1714C56.5466 76.417 57.5553 77.1613 57.6574 77.3314C57.8359 77.6287 57.7204 78.7172 57.9291 79.2286C58.06 79.5492 58.3997 79.6976 58.5498 80.0149C58.7527 80.4435 58.3713 81.6216 59.3639 81.8211C61.0345 82.157 60.3677 81.029 60.5308 80.0509C60.5701 79.8151 60.7855 79.6479 60.8282 79.4131C60.9774 78.5933 60.3725 77.9773 60.3838 77.4065C60.3905 77.0666 60.7453 76.7353 60.8179 76.3118C60.9587 75.4893 60.6029 74.3638 60.6594 73.6852C60.6839 73.3908 60.9749 73.4711 60.9701 73.3921C60.8791 71.9066 60.9327 70.4425 61.2128 68.9585C61.2357 68.8372 62.206 66.9096 62.2974 66.7902C62.45 66.5909 63.9714 65.6407 64.1972 65.5893C64.5997 65.4977 65.5734 65.6404 65.9866 65.7498C66.5971 65.9115 68.8756 67.0851 69.1668 67.6032C69.2711 67.7887 69.1659 68.3105 69.2695 68.6647C69.4034 69.1227 70.0647 69.5873 70.1291 70.1419C70.1691 70.4868 69.9953 70.7792 70.0192 71.0384C70.0517 71.3928 70.369 72.1011 70.4191 72.6272C70.5847 74.3666 70.0767 76.0628 70.1216 77.7134C70.1272 77.9223 70.2404 78.4178 70.3651 78.5675C70.4853 78.7116 72.3184 79.0128 72.5041 78.9862C73.7988 78.8009 75.8611 77.9169 77.2027 77.839C77.4784 77.8229 77.7185 78.0319 78.0501 78.0261C78.9741 78.0099 80.2373 77.3976 81.2167 77.3282C81.8102 77.2861 83.5515 77.3371 84.0992 77.4121C85.0827 77.5469 86.6899 78.6881 87.6311 79.2748C87.8878 79.4349 88.1003 79.8654 88.3693 79.9415C88.7835 80.0588 89.0297 79.7953 89.2557 79.8019C89.3225 79.8038 89.5463 80.7751 89.9268 79.3871C90.1122 78.7109 90.0984 78.4684 90.1304 77.8581C90.1889 76.7397 90.7572 77.035 90.9681 76.5566C91.2009 76.0284 90.8707 75.5185 91.5213 74.9382C91.6914 74.7865 91.9821 74.7748 92.093 74.6618C92.2708 74.4808 92.2814 73.9283 92.526 73.622C92.8384 73.2305 94.9394 71.6012 95.3391 71.476C96.3525 71.1583 97.4492 70.8441 98.5257 70.4822C98.7537 70.4056 98.8753 70.1173 99.042 70.0852C99.508 69.9954 101.971 70.2772 102.553 70.3971C103.446 70.5814 104.347 71.6107 105.215 71.9178C105.637 72.0672 106.63 72.0331 106.684 72.0841C106.737 72.1347 106.627 72.4368 106.784 72.5456C106.949 72.6597 107.391 72.654 107.705 72.837C107.832 72.9113 108.334 73.3395 108.467 73.4685C109.277 74.2513 109.695 75.1641 110.413 76.0156C110.559 76.1883 110.868 76.2615 110.955 76.4027C111.197 76.7947 110.919 78.0985 111.101 78.7403C111.23 79.1986 112.148 79.2321 112.365 79.9617C112.501 80.4183 112.177 81.7308 112.305 82.3542C113.339 82.8507 112.324 83.6082 112.329 84.0709C112.333 84.4378 112.723 84.5942 112.509 85.3921C112.284 86.2358 111.742 86.3299 111.427 86.7892C110.933 87.5101 110.749 88.001 110.481 88.7916C110.374 89.1061 109.954 89.3067 109.944 89.3672C109.866 89.8612 110.316 90.2293 110.19 90.81C110.054 91.4393 109.579 91.4761 109.259 91.9026C108.538 92.864 108.471 93.9701 107.87 95.0059C107.624 95.4292 107.911 95.8958 107.003 95.7694C107.739 97.2546 106.246 97.6009 105.862 98.3973C105.373 99.4118 105.905 101.798 105.279 102.64C104.55 103.62 104.917 103.138 104.578 104.263C104.419 104.795 103.988 104.909 103.832 105.227C103.777 105.339 103.322 106.933 103.321 107.045C103.312 107.596 103.917 109.237 103.914 109.628C103.914 109.717 103.622 109.631 103.583 109.931C103.534 110.302 103.49 111.899 103.851 112.018C104.965 112.385 105.58 111.007 106.085 110.735C106.358 110.589 106.728 110.617 106.906 110.499C107.043 110.41 107.021 110.067 107.229 109.86C108.045 109.055 108.933 108.729 109.748 107.807C110.858 106.55 110.891 106.13 111.494 104.672C112.287 102.753 113.505 100.977 114.394 99.2101C115.226 97.556 115.606 95.9061 116.018 94.1731C116.072 93.9453 116.483 93.7281 116.546 93.4527C116.594 93.2481 116.226 93.0609 116.307 92.7666C116.373 92.5285 116.94 92.4557 117.05 92.0961C117.192 91.6334 116.874 91.2233 116.945 90.9185C117.026 90.5689 118.035 89.6604 118.1 89.4245C118.21 89.0309 118.036 88.4552 118.161 88.0208L118.779 88.176C118.947 87.7749 118.467 87.2575 118.469 87.1926C118.491 86.5807 119.118 85.592 119.101 85.3175C119.095 85.206 118.655 85.3084 118.781 85.0029C118.908 84.7445 119.372 84.7927 119.4 84.7653C119.446 84.7192 119.124 83.8401 119.234 83.4681C119.281 83.3125 119.625 83.3851 119.788 83.2247C119.971 83.0441 119.924 82.7189 120.024 82.5658C120.132 82.3987 120.343 82.3882 120.447 82.1822C120.743 81.5979 120.451 81.1911 120.511 80.7041C120.552 80.3692 121.085 78.4446 121.226 78.151C121.47 77.6407 122.379 76.8281 122.962 77.1768C123.063 76.5956 122.358 76.1122 122.655 75.5986C122.684 75.5487 123.444 74.9147 123.537 74.8518C123.719 74.7281 124.069 74.7639 124.169 74.6649C124.25 74.5853 124.298 74.0354 124.446 73.7795C124.616 73.4867 125.062 73.1977 125.241 72.8362C126.56 72.8628 127.557 72.4986 128.875 72.8931C129.342 73.0328 129.471 73.2831 129.754 73.4408C130.254 73.7191 130.545 73.2857 130.246 74.388C131.063 73.9994 131.095 74.4348 131.601 74.6599C132.466 75.0447 133.041 74.9376 133.422 75.9367C133.512 76.1721 133.458 76.5685 133.568 76.7205C133.697 76.8978 134.065 76.8313 134.266 76.9526C134.706 77.2197 135.736 78.8765 136.135 79.2678C136.298 79.4276 136.685 79.4505 136.73 79.5231C136.847 79.7103 136.86 81.4514 136.971 81.8299C137.078 82.1982 137.433 82.1708 137.502 82.3869C137.645 82.84 137.413 83.382 137.644 83.9539C137.858 84.4814 138.881 85.0862 139.209 85.6428C139.99 86.9692 140.334 88.9769 141.24 90.1184C141.425 90.3513 141.817 90.4146 142.004 90.7488C142.233 91.1589 142.09 91.6121 142.253 91.893C142.37 92.0939 143.804 92.9184 143.855 93.0031C143.939 93.1393 143.834 93.4515 143.905 93.6512C143.978 93.8602 144.262 93.8568 144.341 94.0276C144.617 94.6193 144.759 96.2028 144.955 96.4793C144.993 96.5328 145.844 97.3528 145.899 97.3887C146.979 98.0973 147.086 97.1785 147.237 97.1492C147.454 97.1075 147.736 97.297 147.966 97.2736C148.502 97.2192 149.743 96.524 150.209 96.4709C150.435 96.445 151.635 96.5182 151.827 96.5732C152.455 96.7524 153.587 99.0959 153.42 99.7947C153.31 100.258 151.579 101.993 151.155 102.19C150.087 102.685 149.633 103.012 148.717 103.51C147.939 103.933 147.594 103.8 146.897 103.819C146.248 103.837 145.852 104.548 145.303 104.891C144.462 105.418 143.016 105.764 142.28 106.29C142.052 106.453 142.095 106.868 141.869 107.003C141.656 107.13 140.482 107.165 140.084 107.271C140.015 107.289 139.988 107.572 139.554 107.626C139.285 107.66 139.035 107.524 138.764 107.603C138.251 107.753 137.88 108.561 137.426 108.729C137.116 108.843 136.326 108.582 136.288 108.624C136.177 108.751 136.5 109.451 135.399 109.675C134.669 109.823 134.037 109.379 133.901 109.411C133.81 109.432 132.944 110.55 132.647 110.795C130.894 112.238 130.036 111.497 128.343 112.068C128.092 112.153 127.995 112.463 127.681 112.505C127.395 112.542 127.114 112.33 126.828 112.407C126.759 112.426 125.795 113.273 125.741 113.344C125.588 113.549 125.615 113.873 125.595 113.894C125.552 113.938 125.023 113.701 124.758 113.736C124.187 113.814 123.057 114.426 122.552 114.454C121.502 114.513 119.402 114.551 118.394 114.356C117.508 114.184 116.386 113.249 115.637 112.93C114.444 112.424 114.72 112.846 114.128 113.351C113.97 113.486 113.57 113.547 113.533 113.604C113.362 113.871 113.73 114.42 113.599 114.669C113.501 114.856 113.193 114.897 113.093 115.022C112.453 115.816 111.714 116.161 111.386 116.568C111.162 116.844 111.278 117.264 110.961 117.617C110.36 118.285 109.578 118.09 108.96 118.404C108.428 118.675 107.836 119.691 107.308 120.006C106.841 120.285 106.363 120.192 106.026 120.39C105.839 120.5 105.746 120.965 105.454 121.096C104.789 121.392 102.503 121.302 101.777 121.056C101.11 120.829 100.834 120.186 100.328 119.871C99.8895 119.599 99.3005 119.535 98.8384 119.347C98.5009 119.209 98.022 118.76 97.764 118.732C97.5303 118.706 97.1399 118.938 96.843 118.993C96.6073 119.037 96.0932 118.956 96.0037 119.006C95.9869 119.016 96.1755 119.255 96.0185 119.392C95.4672 119.873 93.9516 119.979 93.3143 119.631C93.134 119.533 93.2972 119.254 93.1136 119.151C92.8483 119.002 92.2959 119.232 92.124 119.095C91.9839 118.983 92.0311 118.684 91.9332 118.583C91.8912 118.539 91.127 117.917 91.0367 117.852C90.5811 117.523 89.6719 117.66 89.2522 116.833C89.1309 116.593 89.4663 116.336 89.5082 115.99C89.6586 114.749 88.5986 114.337 87.839 113.607C86.8865 113.797 85.9133 113.68 84.9657 113.933C84.6768 114.01 84.5152 114.223 84.2601 114.312C81.4243 115.294 77.8525 115.543 74.9294 114.438C74.616 114.319 72.4302 113.306 72.3008 113.193C71.9644 112.898 71.4659 112.157 70.9562 111.749C70.5256 111.404 69.5438 110.914 69.2843 110.632C68.8029 110.108 68.1966 108.657 67.7154 108.018C67.3491 107.531 66.546 106.767 65.8882 106.908C65.7028 106.948 65.7597 107.287 65.6471 107.431C64.8205 108.486 64.1529 109.921 63.222 111.092C62.991 111.382 62.2494 111.89 62.0666 112.147C61.6049 112.795 61.785 113.219 60.8225 113.81C60.6516 113.915 60.3329 113.845 60.2416 113.92C60.1384 114.004 60.2048 114.45 60.016 114.628C59.8297 114.804 58.8987 115.17 58.5829 115.438C58.116 115.835 57.8806 116.293 57.2561 116.745C56.4972 117.295 55.2526 117.714 54.5815 118.254C54.2786 118.497 54.1855 118.863 53.8503 119.072C53.3211 119.402 52.5498 119.361 52.0422 119.588C51.7413 119.723 51.5028 120.163 51.2868 120.206C50.785 120.306 49.7689 119.939 49.2823 119.928C48.2094 119.905 47.2867 120.382 46.1205 119.695C45.8446 119.533 45.7955 119.173 45.5779 118.999C45.3317 118.803 44.9091 118.621 44.5271 118.337C42.9521 117.164 41.1191 115.418 40.1438 113.898C39.9926 113.662 39.5959 113.668 39.4492 113.508C39.2652 113.306 39.335 113.017 39.2109 112.816C39.0868 112.616 38.6989 112.558 38.5879 112.342C38.4585 112.091 38.6682 111.839 38.6277 111.668C38.5926 111.519 38.2606 110.521 38.2103 110.483C38.1229 110.418 37.6695 110.707 37.5934 110.639C37.4436 110.179 37.9703 110.459 37.9087 110.101C37.8343 109.668 37.208 109.231 37.1651 108.994C37.1289 108.795 37.3134 108.398 37.2995 108.08C37.2885 107.827 36.9808 107.871 36.8593 107.43C36.6466 106.659 36.804 104.819 36.6215 104.385C36.4919 104.076 35.8359 103.925 35.7481 103.558C35.6712 103.238 36.0293 103.071 36.0391 102.817C36.0478 102.594 35.7825 102.323 35.7412 102.034C35.5569 100.743 36.1926 100.67 35.0373 99.4841C34.3063 98.7338 34.5414 99.129 33.907 99.2876C33.6392 99.3546 33.3304 99.2934 33.0942 99.4057C33.0048 99.4482 31.8491 100.591 31.6716 100.689C31.4544 100.809 31.0657 100.643 30.9493 100.747C30.8959 100.794 30.9356 101.06 30.8495 101.18C30.7042 101.382 30.3969 101.343 30.2224 101.489C29.9952 101.68 30.0404 102.048 29.7486 102.268C29.4552 102.49 28.2684 102.663 27.9432 102.772C27.6911 102.857 27.6035 103.172 27.3012 103.192C26.2697 103.262 26.3903 102.551 26.1363 102.34C25.7665 102.033 23.9638 103.142 23.7271 103.671C23.6116 103.929 23.6751 104.416 23.6475 104.443C23.5897 104.5 23.1536 104.368 23.043 104.456C22.9771 104.509 22.5968 105.919 22.5729 106.079C22.4679 106.781 22.7213 107.41 22.7004 107.939C22.6923 108.145 22.4626 108.268 22.4777 108.482C22.4955 108.736 23.0606 110.453 23.1925 110.833C23.2915 111.118 23.6076 111.804 23.679 112.25C23.7487 112.687 23.7687 115.337 23.6485 115.443C23.5881 115.496 23.1684 115.359 23.0504 115.464C22.9913 115.516 23.0309 115.825 22.8777 115.984C22.2351 116.653 20.652 116.408 19.8057 116.431C19.2094 116.262 18.9368 115.496 18.6365 115.029C18.5677 114.922 18.2926 114.899 18.2383 114.724C18.16 114.47 18.3688 114.202 18.3358 113.99C18.256 113.476 18.011 111.931 17.8826 111.524C17.7833 111.21 17.3571 111.119 17.2921 110.709C17.2248 110.284 17.4719 109.844 17.4403 109.346C17.4172 108.983 16.6762 106 16.5287 105.597C16.3382 105.077 15.855 104.624 15.6325 104.17C15.2417 103.373 15.2262 103.156 14.5834 102.433C13.7398 101.485 12.2087 100.113 12.0346 98.7673C11.9624 98.209 12.1886 97.6557 11.9558 96.9997C11.7678 96.4703 11.1575 96.2939 11.1027 95.515C11.0666 95.0005 11.3757 94.7993 11.3902 94.459C11.3982 94.2708 11.2295 94.0527 11.2483 93.8568C11.2531 93.8068 11.9142 93.1787 11.9416 93.1296C12.0695 92.8992 12.0067 92.5386 12.0282 92.5128C12.0643 92.4696 12.386 92.6439 12.5524 92.6242C12.744 92.6016 12.8772 92.4082 13.1279 92.4292C13.4843 92.4591 14.297 93.0281 14.5736 92.9718L15.2389 91.4914C14.8261 89.527 14.9432 87.4482 14.6448 85.4822C14.5728 85.0087 14.2067 84.3414 14.1929 84.0567C14.1757 83.6982 14.5181 83.5291 14.5068 83.1597C14.4978 82.8658 14.2431 82.4643 14.196 82.0586C14.0514 80.8098 14.2439 79.7708 14.2099 78.6498C14.1781 77.5997 13.7662 76.2756 13.8764 75.2291C13.9075 74.9332 14.2704 73.3253 14.3627 73.1163C14.6725 72.4159 15.1415 72.6857 15.5132 72.6527C16.3714 72.5765 17.9079 72.2695 18.6025 72.8494C18.7776 72.9957 20.0882 74.8819 20.1984 75.1259C20.6268 76.0753 20.1383 76.6868 20.0906 77.5685C20.0071 79.112 20.281 80.9058 20.2197 82.3756C20.2066 82.6911 19.9042 82.9123 19.9286 83.2853C19.9498 83.6101 20.3412 83.9607 20.2504 84.3546C20.2127 84.518 19.8318 84.5159 19.7859 84.7005C19.7587 84.8099 20.2895 86.5408 20.397 86.8689C19.6313 87.5294 20.3568 88.1466 20.3761 88.7119C20.3872 89.0368 20.1236 89.4285 20.1144 89.8006C20.1006 90.365 20.5614 91.3385 20.543 91.6693C20.5246 92 20.1076 92.1668 20.1069 92.2804C20.1064 92.366 20.6688 93.2093 20.6936 93.8551C20.7098 94.2775 20.4942 94.5963 20.5759 95.0314C20.6144 95.2366 21.6725 97.6152 21.7939 97.6981C22.1797 97.9617 23.8986 97.8963 24.2712 97.7082C24.583 97.5507 24.4909 97.0682 24.6835 97.0031C25.2833 96.8003 26.7141 97.0516 26.9618 96.8641C27.109 96.7527 26.9985 96.5047 27.1545 96.3769C27.548 96.0546 27.7531 95.8679 28.1342 95.5286C30.6107 93.3241 33.3199 91.8001 34.9944 88.6001C35.1303 88.3406 35.0698 87.9871 35.1971 87.7184C35.3726 87.3478 36.1261 86.6938 36.2834 86.1709C36.3921 85.8093 36.2821 85.3625 36.4261 85.0747C36.5809 84.7651 37.0332 84.8231 37.1009 84.7431C37.1825 84.6467 37.112 84.2069 37.1922 83.9836C37.8086 82.2675 37.8587 80.6303 38.1244 78.8745C38.3287 77.5247 38.0298 77.2899 38.0773 76.3161C38.1159 75.5239 38.5114 75.3271 38.0174 74.196C37.7746 73.6399 36.9033 72.946 36.6551 72.5749C36.0949 71.7376 36.1156 70.8435 35.9587 69.9768C35.8989 69.6463 35.1642 68.3627 34.951 68.1218C34.8101 67.9626 31.7825 65.7707 31.5334 65.6536C30.8856 65.3491 30.5398 65.5714 30.1971 65.4455C29.8467 65.3166 29.5562 64.7133 29.1163 64.6561C28.8646 64.6234 28.5894 64.8226 28.3959 64.7689C28.1526 64.7013 28.0851 64.0643 27.4291 64.0101C27.1035 63.9832 26.8279 64.1656 26.53 64.1501C24.9742 64.0693 23.4282 63.6311 21.8721 63.5382C21.1366 63.4944 20.04 63.6972 19.4399 63.6174C18.9428 63.5514 18.8266 63.1106 18.3797 63.0814C19.0608 63.84 18.1263 63.6119 17.6382 63.8058C17.4413 63.884 17.4371 64.2071 17.1539 64.254C16.78 64.3159 16.4276 64.0654 16.0107 64.1913C15.5822 64.3208 14.5749 64.8018 14.1257 65.0315C13.5291 65.0526 12.1547 64.9654 11.6747 65.0931C11.5257 65.1328 11.0276 65.9126 10.873 66.0242C10.5381 66.2661 10.1294 66.2192 9.9029 66.3792C9.30158 66.8039 8.40181 67.8581 7.68316 68.4187C6.59391 69.2685 6.28477 68.8836 5.66136 70.396C5.60053 70.5435 5.35261 70.4848 5.34525 70.7441C5.3337 71.1516 5.58247 71.3381 5.60223 71.524C5.63385 71.8217 5.34393 72.2184 5.3554 72.4438C5.35974 72.5295 5.89936 72.5105 5.6733 72.8401C5.66229 72.8561 5.3819 72.6713 5.28526 72.824C5.13863 73.0557 5.1832 73.5286 5.02455 73.8225C4.90776 74.0389 4.62218 74.0581 4.53406 74.2781C4.45734 74.4697 4.56971 74.746 4.5019 74.8579C4.44122 74.958 3.67793 75.4354 3.54672 75.4547C3.30306 75.4905 2.59953 75.1306 2.31603 75.0624C2.15112 75.0227 1.95497 75.194 1.83159 75.1383C1.79656 75.1225 1.79408 74.917 1.69364 74.8494C1.54856 74.7517 1.22849 74.7371 1.19199 74.6861C1.09318 74.5481 1.30669 74.1619 1.24461 73.9172C1.17509 73.6433 0.649027 73.285 0.589818 73.0388C0.542931 72.8438 0.703587 72.6265 0.643835 72.3748C0.314618 70.9888 -0.255621 70.486 0.127845 68.9205C0.295321 68.2368 0.328181 68.337 0.434509 67.5265C0.454272 67.3755 1.83314 65.1572 2.02503 64.93C2.74236 64.0808 3.67824 63.7458 4.43021 63.152C6.30724 61.6701 7.95395 59.9609 10.4319 59.3932C11.0796 59.2448 11.8859 59.4767 12.5371 59.3292C12.9753 59.23 13.3721 58.7299 14.0007 58.6239C16.5067 58.2012 19.2078 58.0517 21.7122 57.8137C24.2813 57.5696 27.316 59.0086 29.8366 59.6023C30.2839 59.7077 30.7693 59.5934 31.1316 59.7018C31.9767 59.9546 33.4263 60.7777 34.2821 61.279H34.2825ZM104.261 78.2139C104.026 78.023 103.942 77.5536 103.366 77.6393C102.001 77.8561 99.6047 77.5136 98.3698 77.9164C98.0377 78.0247 96.9803 79.0696 96.8579 79.3482C96.7356 79.6268 96.8261 79.9225 96.7452 80.1642C96.6683 80.3941 96.3784 80.5121 96.3356 80.6921C96.2802 80.9247 96.4983 81.1721 96.4459 81.4081C96.3943 81.6407 95.9168 81.8684 95.7846 82.2738C95.3635 83.5655 95.9752 85.2722 95.4991 86.6648C95.4115 86.9211 95.1032 87.0284 95.0724 87.3253C95.0293 87.7411 95.3954 88.5645 95.3886 89.0348C95.3792 89.6934 95.0024 90.7101 95.1192 91.6229C95.1901 92.1774 95.5422 92.2614 95.5455 92.304C95.6818 94.0719 95.8073 95.4408 96.056 97.2167C96.2117 98.3275 96.1159 98.8666 96.1518 99.8805C96.1682 100.346 96.2389 101.492 96.3105 101.892C96.3299 102.001 96.9703 102.702 97.0331 102.723C97.3711 102.833 98.1174 102.483 98.2987 102.167C98.6429 101.568 98.3312 100.028 99.1008 99.7928L99.1012 99.6422C98.198 99.522 99.5227 98.1112 99.6261 97.7857C99.9801 96.6715 100.415 96.2826 101.115 95.2645C101.247 95.0717 101.603 95.0129 101.671 94.6962C101.719 94.4692 101.472 94.2966 101.471 94.125C101.47 93.8675 101.598 93.6277 101.596 93.3671C101.593 93.0569 101.406 92.7366 101.458 92.4734C101.564 91.9313 102.509 91.5608 102.734 90.9557C103.339 89.3331 103.566 87.9954 104.671 86.5353C104.785 86.3856 105.107 86.3775 105.149 86.2093C105.271 85.7152 105.19 84.5596 105.386 83.9764C105.537 83.5245 106.069 83.2105 106.082 82.6846C106.088 82.4112 105.781 80.8622 105.66 80.6252C105.536 80.3847 105.299 80.41 105.191 80.1809C105.072 79.9272 104.863 78.5208 104.81 78.441C104.76 78.3654 104.433 78.3536 104.261 78.2138V78.2139ZM52.3427 79.6235C52.1572 79.4604 52.5156 79.0591 51.5596 78.9713C50.8146 78.903 50.7539 79.3171 50.6521 79.3402C49.5489 79.5903 49.508 79.8019 48.5777 80.4937C47.3525 81.4047 46.7325 82.2137 45.6544 83.3044C45.4508 83.5103 45.156 83.4798 45.0685 83.567C44.9804 83.6546 44.774 84.6606 44.57 85.0061C44.319 85.4313 43.7377 85.7153 43.6633 85.9586C43.5382 86.3673 43.7347 86.9053 43.6088 87.3036C43.5702 87.4261 42.6149 88.1846 42.5942 88.4083C42.5797 88.5648 42.9141 89.3978 42.7753 89.8992C42.6892 90.2103 42.3492 90.3591 42.2729 90.6106C42.1923 90.8764 42.2801 91.1964 42.2033 91.4702C42.0059 92.1743 41.5026 93.1125 42.3056 93.7645C42.6093 94.011 44.1668 94.0822 44.5726 93.9911C45.0509 93.8839 44.6833 93.6832 44.8627 93.5189C45.1286 93.2756 45.4405 93.4641 45.6396 93.3633C45.7064 93.3295 46.494 92.6947 46.7903 92.4972C47.3677 92.1125 47.3969 90.9506 47.3653 90.2655C47.3381 89.6777 46.935 89.0249 46.9587 88.5613C46.9821 88.1023 47.8018 86.5597 48.2242 86.5263C48.4474 86.5085 48.6664 86.6823 48.9011 86.5605C49.0952 86.4598 49.1877 86.0968 49.3814 85.9439C50.4175 85.1262 50.9286 85.0041 51.9995 84.5336C52.2132 84.4397 52.74 83.7771 53.1371 83.6462C53.274 83.2698 53.474 82.9324 53.5184 82.5226C53.551 82.2228 53.2942 80.3594 53.2089 80.0755C53.0494 79.5443 52.4916 79.7542 52.3429 79.6234L52.3427 79.6235ZM130.35 82.0304C130.221 81.8896 129.977 81.8444 129.847 81.6844C129.421 81.1615 129.41 80.3627 128.35 80.6185C127.725 80.7694 127.741 81.2882 127.499 81.5211C126.591 82.3936 126.909 82.2193 126.282 83.0526C126.13 83.2554 125.766 83.3335 125.665 83.5285C125.545 83.7591 125.832 84.1858 125.76 84.5042C125.729 84.6426 125.369 84.6905 125.244 84.955C125.022 85.4239 125.069 86.4231 124.585 86.9358C124.392 87.1401 124.081 87.066 124.048 87.0961C123.951 87.1868 124.555 88.2932 124.158 88.7516C123.646 89.3411 123.438 89.5058 123.309 90.4593C123.102 91.9948 123.198 93.463 125.173 92.7872C125.471 92.6853 126.239 92.0661 126.411 91.9976C126.73 91.8704 127.271 92.0848 127.462 91.9601C127.705 91.802 127.752 91.4575 127.78 91.4403C127.833 91.4074 128.064 91.625 128.205 91.566C128.245 91.5494 128.353 91.107 128.811 91.0055C129.178 90.9238 129.532 91.0287 129.83 90.9629C129.943 90.9378 129.92 90.6881 130.043 90.6594C130.26 90.6081 130.532 90.7014 130.762 90.6313C131.045 90.5454 131.116 89.9687 131.423 89.9129C131.895 89.8272 132.603 90.1623 133.384 89.7279C133.632 89.59 133.531 89.2792 133.694 89.1443C133.909 88.9654 134.28 89.2299 134.281 88.5722C134.283 87.2711 133.348 87.0313 133.216 86.3589C133.169 86.1189 133.395 85.8055 133.333 85.7177C133.275 85.6353 132.72 85.0295 132.504 84.7539C132.36 84.5713 131.998 84.4832 131.969 84.4336C131.855 84.2416 132.149 83.8503 132.104 83.6121C132.05 83.3283 131.321 83.5943 131.333 83.2964C131.34 83.1185 131.962 83.17 131.794 82.7551C131.459 82.7293 131.009 82.8389 130.706 82.6804C130.425 82.5334 130.476 82.1683 130.35 82.0303L130.35 82.0304ZM76.1711 83.684C76.1594 83.67 75.8373 83.6301 75.8641 83.7588L76.0167 84.1476C75.1629 84.202 74.2802 84.469 73.4966 84.8046C73.116 84.9677 72.1178 85.6547 72.0351 85.6745C71.775 85.7369 71.432 85.4542 71.239 85.5625C71.1437 85.616 70.0744 87.2878 70.0419 87.3922C69.7596 88.2974 70.0745 89.2686 69.9748 89.9464C69.9153 90.3514 69.2422 90.7787 69.5827 91.2817C69.6742 91.4168 70.0255 91.398 69.9737 91.5066C69.8905 91.6808 69.4702 91.7338 69.3794 91.9968C69.2034 92.5069 69.4568 94.9841 69.5567 95.6425C69.6836 96.478 69.9211 97.9593 70.1592 98.7572C70.2237 98.9733 70.5229 99.0923 70.559 99.2704C70.6526 99.7316 70.1684 100.291 70.7442 101.075C71.136 101.609 71.5676 101.961 71.9478 102.702C72.4313 103.645 73.7669 105.506 74.6988 106.148C75.0947 106.421 76.0231 106.632 76.3228 107.003C76.5439 107.276 76.4982 107.664 76.7174 108.002C76.7532 108.058 77.6002 108.903 77.6635 108.921C77.9723 109.01 78.3817 108.645 78.7278 108.644C79.0165 108.644 79.2569 108.87 79.5995 108.856C80.3086 108.827 81.0374 108.343 81.6882 108.177C82.4438 107.985 83.2664 108.112 83.815 108.019C83.9055 108.004 84.8883 106.942 85.0809 106.767C85.8254 106.092 86.329 105.49 87.016 104.829C87.9436 103.936 88.2358 104.428 88.3917 102.796C88.5437 101.206 87.8272 100.706 87.6314 99.2586C87.4471 97.8956 87.7649 96.2186 87.6251 95.0854C87.5529 94.501 87.1384 94.2007 87.0486 93.7998C86.8542 92.9322 86.7164 90.8237 86.7149 89.9644C86.7143 89.5984 86.7819 88.8722 86.6837 88.5877C86.5943 88.3283 86.1949 88.3311 86.1078 88.0745C85.992 87.7332 86.2016 87.4124 86.1722 87.1647C86.062 86.2346 84.2931 84.6754 83.4059 84.4143C83.2788 84.3768 82.2052 84.1462 82.1381 84.1428C82.0584 84.1387 82.2379 84.5075 81.3858 84.4386C80.5946 84.3747 80.0751 83.8501 79.6612 83.8242C79.0613 83.7865 76.6168 84.5331 76.1897 84.1206C76.1088 84.0423 76.2065 83.726 76.1712 83.6839L76.1711 83.684ZM61.6712 89.2056C61.206 88.369 61.1368 88.1462 60.0557 88.4079C59.1614 88.6245 57.8517 89.4842 57.5036 90.3538C57.407 90.5952 57.6316 90.8968 57.418 91.1837C57.2151 91.4565 56.8852 91.3889 56.8298 91.4534C56.739 91.5594 56.8834 91.9789 56.6617 92.2943C56.5512 92.4515 56.1897 92.5606 56.0232 92.7399C54.7116 94.1522 53.9072 94.7929 52.4559 95.9934C52.2853 96.1345 52.2254 96.4124 52.1101 96.4975C51.8134 96.7164 51.2982 96.5144 51.2487 96.5537C51.1828 96.606 51.1239 97.0493 50.9255 97.248C50.7158 97.4581 50.3958 97.4596 50.2124 97.6257C49.9911 97.8262 49.3657 98.6939 49.2124 98.791C48.8252 99.0362 48.4368 98.6828 48.2169 98.726C47.8878 98.7907 48.0245 99.418 47.9639 99.4758C47.9033 99.5335 47.5985 99.4462 47.4492 99.4966C46.9324 99.6712 45.7453 99.8975 45.4502 100.099C45.2278 100.25 45.0762 100.726 44.7131 100.952C44.3869 101.154 44.031 101.135 43.8002 101.278C43.4607 101.488 43.2333 101.907 42.7457 102.004C42.402 102.541 42.7622 103.07 42.7214 103.594C42.6983 103.89 42.4634 104.093 42.4553 104.214C42.4382 104.47 43.0904 107.196 43.1638 107.794C43.2175 108.232 43.0224 108.769 43.1715 109.245L43.633 108.627C43.6522 108.806 43.6571 109.063 43.7483 109.211C44.6632 110.692 45.9609 111.482 47.1569 112.538C47.3137 112.677 47.281 113.032 47.373 113.098C47.4359 113.144 48.8368 113.214 48.9227 113.194C49.1193 113.149 49.2911 112.88 49.485 112.833C49.813 112.755 50.0972 113.003 50.3451 112.942C50.5496 112.891 51.2909 112.593 51.7332 112.463C52.0394 112.373 53.5817 111.337 53.7882 111.109C53.9923 110.884 54.0393 110.484 54.167 110.391C54.3037 110.292 54.5457 110.488 54.61 110.452C54.6574 110.426 54.7008 110.146 54.8803 110.038C55.1727 109.86 55.8939 109.77 55.9913 109.67C56.327 109.325 56.4968 109.151 56.8859 108.785C58.5881 107.182 59.0768 105.378 60.0761 103.454C60.2996 103.024 61.1731 102.34 61.3417 101.917C61.4986 101.525 61.2191 101.174 61.3342 100.69C61.5057 99.9702 62.2862 99.3079 62.4959 98.5922C62.7295 97.7953 62.7508 95.9302 62.6978 95.0778C62.6465 94.2545 62.1071 93.7848 62.0199 93.1085C61.9158 92.3018 61.8014 90.9532 61.7481 90.1119C61.7291 89.8131 61.9239 89.5359 61.9203 89.3498C61.9183 89.2469 61.701 89.259 61.6712 89.2054V89.2056ZM133.843 102.152C133.903 102.122 134.712 102.026 135.096 101.931C136.072 101.689 136.624 101.467 137.284 100.559C137.729 99.9466 137.718 99.3519 137.284 98.7211C137.153 98.5293 136.866 98.4956 136.742 98.3336C136.462 97.9651 136.044 96.1846 135.234 96.5869C135.199 96.6039 135.184 96.8014 135.095 96.8504C134.637 97.1032 132.874 96.5708 132.223 96.7242C131.71 96.8447 130.885 97.7206 130.124 97.8932C129.728 97.983 129.334 97.8824 128.963 97.9718C127.203 98.3966 124.465 100.766 123.041 101.965C122.885 102.097 122.612 102.103 122.5 102.198C122.442 102.247 121.958 103.512 121.948 103.586C121.915 103.825 122.14 104.075 121.961 104.444C121.829 104.716 121.285 104.781 121.026 105.373C119.802 108.17 122.298 106.5 123.365 106.47C123.985 106.453 124.533 106.781 125.295 106.542C125.661 106.428 125.819 106.04 126.068 105.921C126.446 105.74 127.229 105.621 127.728 105.416C127.921 105.337 127.904 105.089 128.027 105.064C128.336 105.001 128.705 105.155 129.021 104.99C129.146 104.924 128.997 104.506 129.315 104.364C129.569 104.251 129.981 104.489 130.246 104.345C130.792 104.051 132.12 102.723 132.73 102.513C133.119 102.379 133.412 102.496 133.705 102.428C133.821 102.401 133.809 102.168 133.843 102.152Z" fill="#E8DF7D"/>
<path d="M168.66 17.3705C168.702 17.3402 168.686 17.0129 168.921 16.9321C169.552 17.0915 170.715 16.7582 171.199 17.0614C171.345 17.1532 171.369 17.4704 171.556 17.5197C171.819 17.5889 172.19 17.2479 172.595 17.5216C172.783 17.6488 172.775 17.9681 172.938 18.1449C173.818 19.103 173.384 18.6886 173.867 19.6977C173.969 19.909 174.294 20.0153 174.373 20.2765C174.675 21.2773 174.398 25.2452 174.227 26.4207C174.054 27.612 173.772 28.6447 173.252 29.6283C173.11 29.8978 173.061 30.4068 172.936 30.5514C172.722 30.7982 172.278 30.6629 172.234 30.7033C172.148 30.7812 172.599 32.1531 172.484 32.5648C172.358 33.0117 171.608 33.4985 171.401 33.8129C171.033 34.3703 170.831 35.0669 170.376 35.6945C170.265 35.8474 169.97 35.9004 169.925 36.0663C169.858 36.3139 170.144 36.6487 170.052 36.9504C169.954 37.2726 169.342 37.2862 169.21 37.5164C169.07 37.7587 169.202 38.1224 169.113 38.2692C169.046 38.3812 168.539 38.4158 168.514 38.4502C168.45 38.5414 168.753 38.8941 168.608 39.075C168.462 39.2559 168.077 39.1791 167.897 39.3007C167.653 39.4662 167.679 40.0592 167.565 40.1314C167.427 40.2182 167.059 40.083 166.812 40.2282C166.676 40.308 166.625 40.5772 166.501 40.7002C166.371 40.829 166.102 40.905 166.071 40.9579C165.758 41.4768 166.584 42.5771 166.281 42.953C166.154 43.1118 165.766 43.0195 165.717 43.1901C165.58 43.6699 166.031 44.7199 165.257 45.0337C165.005 45.1356 164.716 44.8433 164.476 45.1724C164.324 45.3802 164.387 45.6578 164.281 45.8351C164.111 46.1179 163.774 46.2689 163.657 46.8514C163.596 47.1552 163.742 47.5638 163.714 47.5876C163.677 47.6183 163.407 47.526 163.291 47.6214C163.169 47.7215 163.002 48.5644 162.905 48.6392C162.77 48.7432 162.385 48.6153 162.231 48.8203C162.177 48.8913 162.358 49.257 162.212 49.561C162.07 49.8543 161.726 49.9046 161.625 50.0751C161.516 50.259 161.594 50.5519 161.512 50.6552C161.454 50.7294 161.083 50.6909 160.845 50.9953C160.498 51.4417 160.883 51.9532 159.993 51.7715C159.942 52.226 160.228 52.762 159.993 53.1974C159.826 53.5054 159.677 53.8153 159.501 54.1297C159.253 54.5721 158.409 55.4972 158.311 55.9155C158.248 56.1859 158.813 56.8025 158.444 57.3481C158.147 57.4357 157.983 56.9904 157.752 57.0376C157.42 57.1052 157.642 57.9983 157.505 58.1129C157.415 58.1879 155.754 58.16 155.572 58.59C155.465 58.8429 155.647 59.1149 155.587 59.2121C155.344 59.6099 154.751 59.1932 154.504 59.2011C154.402 59.2043 154.479 59.6436 154.033 59.5223C153.978 59.5073 153.691 58.8787 153.184 58.8119C152.955 58.7816 152.815 59.1101 152.512 59.0385C152.382 59.0078 151.084 57.7054 151.037 57.5471C150.994 57.4035 151.136 55.715 151.181 55.584C151.278 55.3037 151.637 55.4016 151.744 55.298C151.888 55.1585 151.828 54.6174 151.974 54.441C152.096 54.293 152.497 54.309 152.548 54.2383C152.66 54.0819 152.392 53.6073 152.468 53.3135C152.56 52.9625 153.083 52.6915 153.115 52.4764C153.153 52.2176 152.908 51.6554 153.024 51.3067C153.484 51.7765 153.928 51.6503 153.762 50.958C153.502 49.8795 152.693 50.6225 152.201 50.5079C152.131 50.4916 151.217 49.7164 151.096 49.5928C150.007 48.486 148.81 47.0439 148.029 45.6842C147.315 44.4392 147.039 43.8715 145.748 43.1674C145.108 42.8186 144.963 41.5386 144.664 41.0357C143.966 39.8666 141.769 38.7405 140.867 37.3572C139.919 35.9046 139.072 35.0187 138.103 33.691C138.006 33.558 137.677 33.4954 137.521 33.268C137.457 33.1739 136.913 31.1812 136.914 31.0671C136.916 30.7041 137.178 30.5671 137.22 30.3027C137.275 29.966 137.081 29.6574 137.113 29.4053C137.158 29.0505 137.456 28.58 137.458 28.235C137.458 28.0059 137.21 27.865 137.237 27.7044C137.283 27.4279 137.899 27.1195 138.103 26.9283C138.258 26.7834 138.988 25.9913 139.276 25.8569C139.418 25.7908 139.657 25.9003 139.677 25.878C139.774 25.7677 139.974 24.8582 140.015 24.8209C140.125 24.7207 140.649 25.0096 140.854 24.9693C141.193 24.9025 140.911 24.3937 140.937 24.3556C141.058 24.1798 141.783 24.3612 141.874 24.2877C142.042 24.1535 141.946 23.7685 142.116 23.7206C142.34 23.6576 142.975 23.8272 143.095 23.7111C143.147 23.6609 143.036 23.3681 143.199 23.2517C143.255 23.2113 144.392 22.6818 144.46 22.6696C144.859 22.5988 145.286 22.8964 145.633 22.8105C145.782 22.7736 145.765 22.4637 145.999 22.3678C146.248 22.2651 147.929 21.9094 148.176 21.9185C148.778 21.9404 150.34 22.3497 150.962 22.4631C151.038 22.477 151.961 22.0141 152.427 21.9749C153.438 21.8901 154.272 22.1268 155.106 22.1917C156.341 22.288 157.576 22.2657 158.809 22.3208C159.303 22.1653 158.884 21.5992 158.91 21.5628C159.037 21.3784 159.764 21.5683 159.81 21.5399C159.868 21.5042 159.89 21.2556 160.001 21.1882C160.235 21.0472 160.606 21.0332 160.735 20.9083C160.954 20.6962 160.886 20.0557 160.925 20.0118C160.983 19.9466 161.218 20.19 161.39 20.0946C161.561 20 161.391 19.6263 161.555 19.3401C161.944 18.6629 162.843 18.6948 163.44 18.4541C163.708 18.346 163.803 17.6371 164.487 18.3099C164.271 18.1027 165.004 17.5428 165.059 17.5317C165.47 17.4484 165.726 17.8483 165.882 17.778C166.231 17.6206 166.308 16.9279 167.242 16.7859C167.871 16.6904 168.439 17.5319 168.661 17.3705H168.66ZM167.405 22.0544C167.34 21.9718 166.505 21.8234 166.307 21.8988C165.475 22.4062 164.678 23.3574 163.903 23.8764C163.725 23.9959 163.352 23.94 163.139 24.0877C163.027 24.1644 162.715 24.8221 162.551 24.8126C162.417 24.805 162.378 24.37 162.232 24.343C161.333 24.1765 161.964 25.0599 162.001 25.3653C162.096 26.1446 161.841 26.7657 161.848 27.3763C161.852 27.7268 162.146 28.0132 162.085 28.2241C162.053 28.336 160.987 30.1352 160.898 30.2102C160.809 30.2853 160.276 30.2387 160.018 30.3383C159.862 30.3986 158.722 30.9507 158.664 30.9983C158.425 31.1934 158.439 31.5009 158.444 31.7863C158.058 31.9185 158.056 31.3962 157.961 31.344C157.521 31.1029 157.454 31.6742 157.24 31.7874C156.533 32.1611 154.708 32.2887 153.983 32.1434C153.072 31.9611 153.09 32.171 152.513 32.2091C151.876 32.251 151.606 31.9458 151.627 31.3213C151.248 31.383 150.91 31.3995 150.777 31.7863C150.502 31.6735 150.448 30.7874 150.58 30.5781C150.629 30.5004 150.877 30.4875 150.932 30.4001C151.013 30.2715 150.818 30.0469 150.871 29.9575C150.907 29.8954 151.447 29.7173 151.619 29.5309C151.696 29.4476 152.46 28.3204 152.477 28.2449C152.511 28.0886 152.294 26.762 152.234 26.6857L147.823 26.2259C147.538 26.3002 147.381 26.5055 147.058 26.5358C146.434 26.5943 145.943 26.0061 146.042 26.8141C145.749 26.8015 143.831 27.2333 143.754 27.3229C143.673 27.417 143.67 28.0231 143.57 28.2252L143.104 28.3029C143.622 28.6926 143.601 29.7848 143.773 30.0344C144.198 30.6514 146.228 32.7393 146.358 32.9905C146.499 33.2642 146.439 33.7136 146.556 33.9931C146.746 34.4501 148.278 36.0872 148.737 36.5357C148.909 36.7047 149.385 36.8548 149.428 36.9296C149.523 37.097 149.441 37.6667 149.525 38.0014C149.539 38.0551 150.112 38.8761 150.153 38.914C150.381 39.1284 150.768 39.0703 151.053 39.2246C151.357 39.3888 151.656 40.102 151.869 40.3067C152.006 40.4388 152.23 40.3477 152.404 40.5227C153.181 41.3024 154.718 43.4409 155.604 43.8464C157.381 44.6602 158.073 44.5736 159.807 43.9163C160.045 43.8261 160.52 43.8495 160.681 43.7352C160.885 43.5905 160.697 43.1845 160.776 43.1037C160.831 43.047 161.241 43.175 161.467 42.9501C161.504 42.914 161.579 42.2293 161.731 41.9607C161.987 41.5091 162.477 40.9987 162.783 40.5392C162.951 40.2872 163.248 39.8358 163.383 39.59C163.54 39.3038 163.51 38.899 163.588 38.789C163.681 38.6573 164.093 38.6819 164.159 38.5839C164.248 38.4506 164.121 38.0231 164.201 37.7762C164.277 37.5429 164.697 37.4788 164.84 37.1742C164.992 36.8495 164.912 36.1936 164.97 36.1338C165.025 36.0776 165.342 36.1703 165.399 36.1147C165.53 35.9878 165.297 34.9667 165.438 34.7508C165.498 34.6581 165.881 34.6821 166.001 34.5399C166.166 34.3446 166.09 33.7538 166.234 33.5325C166.302 33.4285 166.595 33.3869 166.729 33.1795C166.975 32.8001 168.078 31.2853 168.131 31.1724C168.262 30.8949 168.148 30.5768 168.23 30.3348C168.309 30.1003 168.664 30.1294 168.677 29.9924C168.693 29.818 168.472 29.3532 168.508 28.921C168.56 28.2835 169.111 27.6397 169.188 26.8054C169.243 26.2214 169.032 25.3156 169.046 24.8951C169.054 24.6611 169.349 24.466 169.273 24.1487C169.17 23.7152 168.568 23.7741 168.517 23.7245C168.502 23.7094 168.654 23.4807 168.628 23.3673C168.508 22.8577 167.656 22.8854 167.503 22.6482C167.393 22.4781 167.486 22.157 167.405 22.0543L167.405 22.0544Z" fill="#E8DF7D"/>
<path d="M118.248 131.316C118.421 131.467 119.027 132.3 119.052 132.425C119.071 132.52 118.912 134.215 118.866 134.353C118.727 134.773 116.659 136.257 116.155 136.606C116.045 136.682 116.005 136.908 115.88 136.986C115.507 137.216 114.428 137.017 113.929 137.163C113.643 137.247 113.496 137.674 113.249 137.729C113.015 137.781 112.768 137.566 112.533 137.618C112.424 137.643 111.061 138.521 110.608 138.644C110.109 138.779 109.513 138.607 108.976 138.716C108.123 138.888 106.716 140.011 105.805 140.206C104.407 140.506 103.281 140.56 101.769 140.975C101.427 141.069 101.068 140.781 100.664 141.09C100.418 141.278 100.409 141.761 99.9548 141.624C99.7761 141.57 99.749 141.184 99.7189 141.161C99.4019 140.915 99.3912 141.467 99.2613 141.556C99.1081 141.661 98.8417 141.486 98.632 141.539C97.4402 141.84 96.3355 142.699 95.2982 142.855C94.7203 142.943 94.0649 142.803 93.4632 142.88C91.471 143.133 88.8594 144.177 87.0484 144.861C86.0887 145.224 85.8963 144.768 85.2252 144.733C84.2055 144.679 84.0335 145.26 82.791 144.411C82.1657 143.983 82.2327 143.527 81.9717 143.028C81.8557 142.807 81.5235 142.675 81.4602 142.442C81.4326 142.34 81.5914 140.455 81.6257 140.339C81.7017 140.081 82.5117 139.41 82.7648 139.149C82.8992 139.01 82.9834 138.709 83.0046 138.694C83.0327 138.675 83.4094 138.871 83.6728 138.839C84.1127 138.786 84.6486 138.1 85.5696 138.072C85.9554 138.06 86.2946 138.262 86.6177 138.217C87.6896 138.07 88.755 137.394 90.0286 137.305C90.2511 137.289 90.5423 137.497 90.7863 137.454C90.9513 137.424 90.9513 136.955 91.3061 136.85C91.4774 136.798 93.7455 136.371 93.929 136.36C96.5986 136.192 97.7565 135.268 100.282 134.826C100.583 134.773 100.974 134.872 101.184 134.818C101.337 134.779 101.211 134.503 101.372 134.333C102.113 133.546 102.704 133.891 103.448 133.81C104.443 133.701 105.373 133.061 106.342 132.829C107.236 132.615 108.387 132.244 109.165 132.087C109.655 131.989 110.765 132.155 111.242 131.996C111.49 131.913 111.511 131.497 111.755 131.415C112.069 131.311 112.364 131.536 112.518 131.513C112.681 131.489 112.665 131.131 112.845 131.086C113.795 130.848 116.347 130.641 117.316 130.771C117.727 130.826 117.946 131.055 118.248 131.316L118.248 131.316Z" fill="#E8DF7D"/>
<path d="M140.594 135.923C140.629 135.983 140.724 137.198 140.701 137.307C140.666 137.473 139.488 139.588 139.341 139.719C138.11 140.817 136.135 140.471 134.857 141.162C134.634 141.282 134.646 141.655 134.324 141.752C133.87 141.888 133.028 141.853 132.413 142.01C129.324 142.804 126.188 143.741 123.232 144.604C122.276 144.884 120.698 145.215 119.91 145.699C119.797 145.768 119.771 146.076 119.555 146.192C119.034 146.472 117.601 146.456 116.918 146.657C116.385 146.813 115.837 147.297 115.407 147.47C114.361 147.891 113.296 148.129 112.282 148.528C110.921 149.065 110.617 148.701 109.441 148.941C108.785 149.074 108.053 149.915 107.827 149.968C107.595 150.022 107.333 149.822 107.089 149.838C106.78 149.859 106.611 150.135 106.196 150.113C106.085 150.108 104.331 149.553 104.243 149.498C104.173 149.455 104.115 149.076 103.978 148.914C103.667 148.544 102.613 147.779 102.549 147.415C102.518 147.237 102.678 147.011 102.666 146.816C102.617 146.059 102.559 145.473 102.827 144.688C102.841 144.645 103.407 144.046 103.446 144.021C103.72 143.846 103.99 144.078 104.233 144.018C106.612 143.432 108.635 142.913 110.868 141.848C111.073 141.75 111.189 141.457 111.345 141.386C111.531 141.301 113.092 141.244 113.412 141.137C113.499 141.108 114.369 140.165 114.698 140.099C114.899 140.058 115.184 140.357 115.463 140.386C116.805 140.528 117.813 139.73 118.901 139.499C121.239 139.001 123.581 138.347 125.942 137.708C126.834 137.467 128.357 136.697 129.125 136.541C129.506 136.463 129.761 136.863 130.159 136.825C130.462 136.796 132.419 135.788 132.996 135.622C134.144 135.293 136.109 134.982 137.289 134.955C137.923 134.941 139.368 134.854 139.841 135.206C139.997 135.321 140.042 135.537 140.164 135.664C140.293 135.799 140.564 135.87 140.594 135.923L140.594 135.923ZM140.316 136.049C139.516 135.83 139.391 136.556 139.931 136.821C140.274 136.989 140.151 136.169 140.316 136.049ZM139.231 136.823C139.174 136.77 138.651 136.725 138.769 137.052C138.94 137.53 139.393 136.973 139.231 136.823ZM110.258 144.102L109.795 143.639C109.744 144.141 109.756 144.153 110.258 144.102ZM108.864 146.274H108.245L108.245 146.425C108.575 146.498 108.726 146.692 108.864 146.274H108.864ZM109.639 147.51C109.501 147.092 109.35 147.286 109.02 147.358L109.02 147.51H109.639H109.639ZM110.258 148.287H109.949C109.899 148.515 110.018 148.609 110.182 148.75L110.258 148.287ZM106.384 149.526H106.076C106.026 149.755 106.144 149.848 106.308 149.989L106.384 149.526Z" fill="#E8DF7D"/>
<path d="M119.863 31.3223L119.709 31.9402C119.766 31.9982 121.206 32.1136 121.323 32.0953C121.591 32.0537 121.759 31.7926 122.108 31.7708C122.677 31.7354 124.517 31.7232 125.046 31.7934C125.473 31.8501 125.856 32.4129 126.211 32.4952C126.465 32.5541 126.71 32.3757 126.889 32.4243C127.374 32.556 127.674 34.4567 127.547 34.8874C127.525 34.9653 126.867 36.0567 126.806 36.0922C126.563 36.2329 124.616 36.2523 124.202 36.1256C124.973 37.2669 123.983 36.7013 123.511 36.7451C123.286 36.766 123.109 37.0158 122.873 37.055C121.867 37.2218 119.051 36.7252 117.924 36.6011C117.455 36.5494 117.272 36.2006 116.962 36.1451C116.664 36.0916 116.391 36.3053 116.149 36.2071C115.909 36.1097 115.364 35.4091 114.941 35.2374C114.615 35.1051 113.724 35.072 113.678 35.0279C113.59 34.9441 113.25 32.9221 113.235 32.6373C113.225 32.4652 113.341 32.2553 113.341 32.0304C113.341 31.8935 113.176 31.6555 113.199 31.6331C113.294 31.5415 114.083 31.7426 113.665 31.0126C114.385 31.2404 114.788 30.6797 115.301 30.556C115.833 30.4277 117.517 30.4631 118.05 30.5789C118.688 30.7176 119.129 31.6462 119.863 31.3223Z" fill="#E8DF7D"/>
<path d="M196.359 36.4858C196.384 36.4952 196.391 36.6527 196.527 36.729C196.66 36.8034 196.943 36.6928 197.104 36.8953C197.134 36.933 197.434 37.7312 197.448 37.7976C197.916 40.0517 195.576 40.9511 193.774 41.1616C193.157 41.2336 192.096 41.0028 191.648 41.2888C189.884 42.4156 188.459 42.2088 186.25 42.1568C185.253 42.1333 185.688 42.3056 184.631 41.9274C184.127 41.7469 183.767 42.1051 183.711 41.3038C183.694 41.0588 183.995 40.5973 183.62 40.4629C183.57 40.4446 183.343 41.1956 182.77 40.9262C182.909 40.7639 182.97 40.0357 182.998 39.9972C183.1 39.8581 183.627 39.8471 183.387 39.5357C183.369 39.5118 182.928 39.4426 182.926 39.3005C182.925 39.1964 183.91 37.9091 183.93 39.0673C184.372 38.812 183.934 38.386 184.08 38.1376C184.108 38.0902 184.811 37.3916 184.855 37.3589C185.691 36.7366 186.281 37.6667 186.488 37.5175L186.41 37.2087C186.754 37.1492 187.322 37.2328 187.628 37.1549C188.137 37.0251 188.511 36.5893 189.21 36.5805C189.695 36.5743 189.86 36.8681 190.12 36.8832C191.431 36.9592 192.512 36.5867 193.684 36.4263C194.077 36.3725 196.062 36.3767 196.359 36.4859L196.359 36.4858Z" fill="#E8DF7D"/>
<path d="M135.471 60.8003C135.613 60.9149 135.62 61.264 135.931 61.3549C136.306 61.4643 136.578 61.2214 136.842 61.232C137.293 61.2502 138.492 62.7546 138.234 63.2364C138.168 63.3599 137.178 64.1308 136.977 64.3121C135.756 65.4142 134.92 65.5883 133.771 66.4947C132.811 67.2525 132.648 68.0905 132.087 69.0239C131.608 69.8231 130.538 69.4726 129.858 69.4612C129.572 69.4564 129.289 69.643 128.936 69.5904C128.343 69.5021 127.899 68.3677 127.438 67.9609C127.68 66.9959 127.325 65.8253 127.603 64.8831C127.666 64.6699 128.507 64.8577 128.075 64.165C129.188 64.3834 129.058 63.7261 129.461 63.3439C130.105 62.7329 131.266 62.0624 131.908 61.4805C131.968 61.4261 132.075 60.8765 132.382 60.7707C132.631 60.6849 134.157 60.3486 134.356 60.3638C134.493 60.3742 135.363 60.7136 135.471 60.8003Z" fill="#E8DF7D"/>
<path d="M176.058 62.8195C177.189 63.7637 177.583 64.7918 178.212 66.0101C178.334 66.2472 178.665 66.4093 178.78 66.6814C179.092 67.4216 179.119 69.5972 178.794 70.3297C178.672 70.6051 178.359 70.4871 178.202 70.6694C178.019 70.8831 178.071 71.3745 177.885 71.5969C177.455 72.1094 176.209 72.2947 175.562 72.2265C174.645 72.1299 174.307 71.5086 173.704 70.9757C173.55 70.8397 173.278 70.8903 173.144 70.7223C172.838 70.3375 172.907 68.6406 172.832 68.5236C172.748 68.3926 172.261 68.4597 172.22 68.2516C172.173 68.0109 172.411 67.6022 172.39 67.5744C172.346 67.5166 171.597 67.5122 171.48 67.1642C171.232 66.4328 171.683 64.8762 171.305 64.0101L172.078 64.165L172.235 63.0804L172.853 63.3884L172.697 62.9268C173.732 62.5972 175.079 62.002 176.058 62.8195H176.058Z" fill="#E8DF7D"/>
<path d="M142.628 7.63257C142.753 7.7699 142.384 8.30216 142.716 8.69756C143.019 9.05917 143.953 9.13598 144.19 9.86703L143.572 10.0202C144.218 10.521 144.638 11.5102 144.332 12.3017C144.281 12.4351 144.048 12.4278 144.031 12.5271C143.977 12.8456 144.292 13.1972 144.123 13.5072C143.989 13.7537 143.057 14.3333 142.805 14.5233C142.666 14.6288 142.613 14.8962 142.485 14.9782C141.572 15.5628 139.546 13.2083 138.998 12.5706C138.667 12.1374 139.442 11.8811 139.387 11.5724C139.223 11.2362 138.931 11.5356 138.81 11.4565C138.763 11.4253 138.78 11.1985 138.664 11.1782C138.411 11.134 138.025 11.4793 137.756 10.8665C137.591 10.4886 137.912 9.95499 137.652 9.43086C137.439 9.0026 137.132 9.41056 136.903 9.10854C136.457 8.52327 136.537 7.07062 137.115 6.58594C137.173 6.53712 138.365 5.8597 138.439 5.84304C138.716 5.78088 140.071 5.75461 140.325 5.83149C140.442 5.86698 141.276 6.37096 141.392 6.46745C141.834 6.83448 141.888 7.26848 142.101 7.46734C142.28 7.63412 142.595 7.59599 142.628 7.63265L142.628 7.63257ZM143.724 12.1123C143.787 11.9107 143.492 11.3333 143.418 11.4934C143.376 11.7698 143.427 12.0365 143.724 12.1123Z" fill="#E8DF7D"/>
<path d="M182.323 4.54201C182.289 4.56472 182.233 4.8434 181.955 5.0232C181.026 5.62459 179.729 5.17913 179.053 4.44327C179.312 3.962 179.603 4.67314 179.821 4.52C179.856 4.49582 180.021 3.89613 180.288 3.82165C180.33 3.27877 179.437 4.22434 179.359 3.66542C179.32 3.38402 180.036 2.55609 180.134 2.27314C180.151 2.22385 179.526 2.25315 180.132 1.49691C180.545 0.981308 180.827 1.23093 181.22 1.03401C181.48 0.904041 181.814 0.163149 182.543 0.0323302C182.787 -0.0113793 184.584 -0.00734937 184.864 0.0240378C185.256 0.0680573 186.038 0.434861 186.025 0.877924C186.019 1.10376 185.711 1.27495 185.712 1.50078C185.712 1.6919 185.954 1.8431 185.967 1.96725C186.019 2.47193 183.438 4.02679 183.074 4.60316C182.864 4.81271 182.374 4.50698 182.323 4.54193L182.323 4.54201Z" fill="#E8DF7D"/>
</svg>
