<svg width="140" height="66" viewBox="0 0 140 66" fill="none" xmlns="http://www.w3.org/2000/svg">
<g clip-path="url(#clip0_2945_4737)">
<path d="M39.398 24.1262C45.8515 21.6591 48.7298 25.8086 50.3841 31.4196C51.1902 34.1544 49.4048 36.4061 53.596 35.8194C58.9589 35.0685 57.1184 34.1966 57.344 31.1664C57.556 28.3202 59.0371 25.6781 58.519 23.0063C63.064 21.3013 64.9023 29.1094 64.1558 32.2054C63.9933 32.8792 62.7822 32.1924 63.0235 33.1211C66.6055 35.1371 79.8316 31.3892 82.1496 32.8455C82.4843 33.0559 83.3618 34.7451 83.2696 34.8103L63.658 37.7055C64.4135 40.1091 62.4875 42.4643 62.4278 44.0634C62.3035 47.4154 67.2513 59.3904 71.4638 58.212C71.8086 58.1158 77.1558 54.6401 77.4792 54.3347C79.0435 52.8576 82.9951 44.5466 83.5497 44.3661C83.8242 44.2766 85.0083 44.1641 84.9644 44.7047C86.3926 50.6576 76.7165 61.8896 71.1651 61.8384C68.6378 61.8154 65.2634 58.2896 63.5945 56.4593C63.037 55.8478 60.6042 51.2314 59.6474 52.2557C59.6873 55.8692 55.6019 60.8186 51.7724 59.5704L52.8906 60.1301C53.9408 61.4318 48.3586 63.2964 47.4209 63.3797C44.6101 63.6283 39.1853 60.6369 37.4483 58.4319C32.045 51.5728 33.485 43.5842 29.0035 36.5237C27.2862 38.4446 14.797 42.5649 14.2143 43.3879C12.47 45.8505 14.7818 52.5139 13.5156 55.6313L11.836 55.0665C11.4299 55.5351 13.3098 58.95 12.9515 59.5659C12.8952 59.6627 11.1385 58.6491 11.2718 60.4001C12.5301 62.6698 15.278 61.4976 14.6429 64.3326C14.0641 66.9173 10.5181 66.2186 10.1435 62.6693C9.54664 57.0144 10.1665 50.4906 9.50051 44.7384C9.11295 43.3603 7.38383 44.5455 5.98208 44.3734C3.77652 44.1028 0.320515 41.2988 0.0100151 39.0347C-0.172797 37.7033 2.19758 37.9862 2.99858 38.1786C3.61733 38.3276 6.18964 43.5707 9.50389 39.5207C9.06289 32.0839 9.16133 24.5143 8.45089 17.1011C8.23883 14.8871 8.10777 11.9272 7.7607 9.91631C7.00245 5.51644 3.7422 3.56344 10.7706 0.849938C15.2273 -0.87075 22.379 0.231188 26.6371 2.28994C33.242 5.48325 40.5286 16.5009 39.3963 24.1262H39.398ZM32.8763 12.6596C28.3938 5.31338 19.2048 0.493875 10.9709 4.99219L14.0506 38.511C15.3674 39.4549 24.9237 34.1859 26.6388 33.0294C30.5453 30.3958 34.5801 26.8762 35.3333 21.9859C35.8941 18.3409 34.5976 15.4806 32.8763 12.6596ZM46.0259 27.6311C44.4554 25.4593 40.1135 28.8799 39.2376 30.4706C38.7831 31.2969 36.2125 37.4304 36.1113 38.0469C34.9857 44.9269 44.4464 43.8233 46.103 39.9971C46.9186 38.1139 47.0918 29.1049 46.0259 27.6311ZM50.0736 38.763C47.8585 36.9602 49.9173 41.3899 49.8385 41.5648C49.7198 41.8275 46.5057 44.9634 46.1013 45.1789C44.7029 45.9231 41.7891 46.2459 40.2051 46.1115C38.6211 45.9771 36.4786 44.1771 36.0674 45.8544C36.0286 46.0119 36.0218 48.9324 36.0477 49.0922C36.1028 49.4376 38.8242 53.8965 39.3687 54.8792C39.7445 55.5576 39.4542 56.5307 39.5442 56.6454C39.9526 57.1669 44.6219 59.733 45.5005 59.8292C48.5526 60.1639 54.1692 55.5047 55.7127 53.1034C57.1572 50.8562 59.8229 40.7042 57.4351 38.9903C56.2685 38.1533 53.1606 40.2098 50.8887 39.9336C49.6473 39.7828 50.1929 38.8609 50.0742 38.7641L50.0736 38.763Z" fill="#E8DF7D"/>
<path d="M111.194 32.3674C107.508 36.6435 102.483 38.5318 99.9112 44.4257C99.7329 44.8341 98.6979 47.853 98.6905 48.0437C98.6815 48.2828 99.8442 52.2979 100.025 52.6438C100.682 53.8959 102.353 55.5896 103.796 55.5868C104.888 55.5846 110.156 52.2967 110.768 51.3467C112.403 48.8087 108.976 45.2312 112.773 40.9759C113.777 39.8498 116.418 38.7248 117.043 37.7893C119.88 33.5402 119.636 20.6798 127.992 26.3734C130.221 27.8933 132.468 31.7306 133.73 34.1353C134.59 35.7739 139.676 47.8215 139.521 48.5848C139.181 50.2616 136.575 48.4965 135.599 49.1361C134.271 50.0057 133.114 52.8069 131.925 53.9432C129.606 56.1606 122.874 58.6558 119.765 58.1338C118.083 57.8514 114.282 54.4663 113.463 54.5918C111.642 54.8708 109.066 58.6958 104.928 59.0023C101.309 59.2701 100.681 57.1134 98.4706 55.4726C95.7144 53.4268 97.3664 56.7309 97.345 57.5528C97.336 57.9021 96.503 57.8936 96.4501 58.0213C96.2195 58.5782 96.6678 59.3483 95.6581 59.8674C93.4902 60.9823 92.1234 57.4583 91.8415 55.7741C91.1131 51.4254 91.3173 42.4468 91.715 37.9176C92.0232 34.4104 93.7265 31.5968 92.8276 28.0654C96.238 28.9671 98.4644 24.9424 101.124 24.2657C106.438 22.914 116.115 26.6586 111.194 32.3668L111.194 32.3674ZM109.142 28.0721C100.685 25.137 95.4584 32.49 96.7707 40.4432C99.1074 40.9545 98.128 39.4358 99.2615 38.1606C100.259 37.0384 109.569 28.638 109.142 28.0721H109.142ZM125.888 28.1993C124.948 27.7538 123.883 28.4777 122.899 28.5227C122.418 28.5446 121.61 27.9591 121.522 28.0614C121.412 28.1919 120.844 31.3088 120.958 31.4364C122.009 32.6171 122.118 29.6837 122.637 30.321C122.935 30.6872 121.943 31.9635 123.763 30.8745C123.86 31.1096 122.378 34.8429 122.049 35.5213C121.751 36.1389 120.781 35.7913 120.958 36.2183C121.824 38.3091 125.269 37.9704 126.989 38.6252C128.451 39.1815 133.374 44.1045 134.455 43.2473C132.537 39.7598 130.98 35.5388 128.923 32.1919C128.512 31.5225 126.293 28.3911 125.888 28.1993ZM133.278 48.8424C134.547 47.4435 129.96 43.7529 128.796 43.0059C118.664 36.5063 119.723 44.3492 115.995 51.3197C120.27 58.5771 127.335 52.3176 131.856 49.0613C132.281 48.7547 133.177 48.9544 133.278 48.8424Z" fill="#E8DF7D"/>
</g>
<defs>
<clipPath id="clip0_2945_4737">
<rect width="139.524" height="65.8856" fill="white"/>
</clipPath>
</defs>
</svg>
