<svg width="472" height="981" viewBox="0 0 472 981" fill="none" xmlns="http://www.w3.org/2000/svg">
<path d="M352.027 0.141821C348.644 4.49175 348.536 10.4753 346.528 15.1506C344.471 19.9387 340.283 25.2462 338.492 30.1344C330.95 50.6991 326.666 76.6714 328.326 98.4023L335.005 113.234C336.17 107.428 332.556 101.225 334.295 95.5065C334.873 93.6079 334.892 94.9473 335.376 90.8937C336.7 79.8175 338.087 66.8157 341.553 56.1714C342.119 54.4377 341.622 53.7847 344.014 54.1873C342.025 66.6217 340.433 78.983 340.158 91.5842C339.82 106.979 340.298 125.66 344.121 140.658C344.567 142.409 345.785 143.556 346.035 145.26C348.027 144.906 347.639 143.105 348.054 141.789C357.162 112.935 375.62 85.196 382.765 58.3975C384.993 50.0398 382.667 42.7357 379.049 35.1749C383.147 32.0434 386.582 45.4249 386.801 47.941C388.736 70.2351 366.491 101.934 357.819 122.532C351.066 138.572 348.674 147.724 348.152 164.913C347.641 181.729 343.556 205.544 337.757 221.573C334.037 231.859 327.759 240.69 326.059 251.912C322.847 273.115 325.968 293.363 344.11 306.819C348.342 309.959 360.449 314.849 365.521 314.411C370.149 314.011 368.468 308.935 369.3 306.175C371.515 298.82 381.151 279.376 386.486 274.306C393.421 267.714 413.399 264.275 418.642 274.321C426.517 289.413 415.276 311.912 399.792 317.643C397.544 318.475 389.725 320.916 387.499 321.363C384.344 321.995 369.461 321.726 369.035 323.95C372.12 328.316 370.773 333.566 371.665 338.543C376.014 362.759 390.125 378.847 408.577 393.484C412.037 396.23 414.696 402.524 419.827 399.741L439.365 386.245C453.042 381.874 476.724 384.607 471.174 404.045C469.31 410.573 458.932 417.426 452.554 418.442C438.545 420.675 427.81 411.297 415.76 407.431C413.809 410.759 411.121 413.817 409.257 417.186C395.942 441.246 395.494 464.725 394.073 492.082C393.149 509.864 397.437 526.93 396.048 545.104C393.861 573.719 387.641 594.964 368.424 616.565C353.222 633.652 327.724 642.304 305.485 644.699C303.015 644.964 300.463 644.559 297.993 644.714C297.34 647.057 298.606 646.404 299.27 646.996C327.219 671.911 349.908 690.702 367.227 725.097C396.895 784.016 395.796 837.673 367.551 896.941C362.391 907.767 346.131 923.927 335.899 930.345C334.197 931.413 326.433 936.893 327.019 931.982L342.692 921.626L344.961 918.411C360.163 907.172 369.77 885.994 376.091 868.446C387.616 836.444 389.587 803.166 380.79 770.586C366.164 716.426 341.904 688.136 302.006 653.203C300.759 652.112 300.26 650.407 299.244 649.681C293.169 645.338 286.257 642.077 278.714 642.938C254.881 645.659 232.891 663.445 211.609 673.922C187.57 685.758 139.58 702.846 113.397 697.697C106.025 696.247 89.6109 685.743 99.3236 677.74C101.862 679.666 99.3486 681.802 100.222 684.771C102.106 691.165 111.458 694.234 117.36 694.735C147.914 697.328 185.336 682.413 212.646 670.43C212.986 670.279 216.166 666.44 218.212 665.508C227.941 661.075 233.078 658.369 241.848 653.117C245.871 650.708 271.583 638.782 273.581 638.734C275.056 638.699 277.047 640.875 277.969 637.71C274.547 637.771 272.459 634.862 269.489 633.669C261.011 630.266 234.811 627.963 225.443 628.714C202.741 630.533 181.557 664.131 155.921 656.168C129.561 647.981 140.091 622.885 158.86 613.177C151.512 605.761 146.323 599.735 150.319 588.605C150.498 588.106 154.184 581.799 154.517 581.562C157.662 579.333 169.313 578.226 173.307 578.728C188.254 580.614 200.169 598.158 211.419 606.668C217.499 611.266 235.842 622.762 242.691 624.437C247.694 625.662 253.68 624.992 258.4 625.741C262.271 626.354 267.933 630.128 272.968 629.678C272.636 627.191 269.178 627.241 268.254 626.404C267.864 626.052 262.83 619.09 262.129 618.009C251.574 601.761 242.286 561.56 240.958 542.097C240.766 539.276 241.031 536.418 240.954 533.602C242.95 534.013 242.651 535.661 242.933 537.115C243.932 542.252 243.408 548.273 244.216 552.85C245.776 561.69 248.906 574.105 251.198 582.899C259.801 615.919 278.741 647.662 318.407 639.598C351.293 632.914 382.573 604.083 388.83 570.901C389.522 567.222 388.951 561.996 389.671 558.539C390.154 556.211 392.576 552.988 392.764 550.985C393.229 546.065 391.266 537.295 391.072 532.093C390.038 504.189 388.523 455.795 399.362 430.299C402.948 421.866 408.754 412.563 413.903 404.975C405.928 396.799 395.896 390.828 388.465 382.055C381.933 374.342 372.224 358.703 369.296 348.685C367.452 342.38 368.472 325.994 364.524 321.43C362.923 319.579 359.719 319.502 357.627 318.275C353.446 315.826 353.637 316.028 349.016 313.915C332.153 306.2 320.895 285.218 320.914 266.862C320.918 262.204 322.472 258.14 321.994 252.855C320.843 240.076 313.235 222.316 301.772 216.232C279.569 204.447 273.058 191.766 258.967 171.767C257.148 169.184 253.28 167.901 251.899 165.825C248.675 160.977 247.473 158.072 242.991 154.012C236.547 148.175 231.846 144.61 225.685 138.503C219.951 132.822 193.81 126.659 185.314 125.322C180.975 124.64 173.323 125.303 169.646 124.06C164.743 122.401 159.3 117.004 158.787 111.675C158.636 110.115 164.307 102.877 165.947 101.023C175.296 90.4535 202.192 79.1916 216.187 81.4386C233.055 84.1466 261.541 106.704 271.516 120.185C272.532 121.556 273.393 122.215 272.966 124.231C267.512 124.362 266.2 117.473 262.496 114.235C255.772 108.352 246.499 100.255 239.089 95.5649C228.911 89.1245 214.662 83.8962 202.712 86.4978C189.877 89.2914 171.73 96.9627 164.441 108.273C160.91 113.753 165.642 118.863 171.075 120.548C180.636 123.513 193.996 122.247 205.152 125.503C227.103 131.908 240.762 147.374 254.996 163.778C257.117 166.224 263.991 171.137 265.418 173.332C266.534 175.049 265.973 177.44 267.946 179.81C269.499 181.677 272.974 182.555 274.424 184.341C276.017 186.304 276.071 189.982 277.479 191.326C278.493 192.292 280.466 192.05 280.82 192.471C281.379 193.135 280.614 195.058 281.181 196.068C281.554 196.732 284.274 197.349 285.227 198.275C289.719 202.642 293.447 207.399 298.99 210.818L297 212.306L300.448 211.252L301.495 213.341L303.975 211.818C303.174 209.546 300.538 208.002 299.564 206.239C289.004 187.089 260.262 144.664 242.282 133.454C241.02 132.668 239.861 131.944 238.951 130.736C240.791 130.056 244.739 131.487 246.326 132.369C249.115 133.919 261.845 145.473 264.486 148.233C267.599 151.488 281.208 167.761 282.906 170.949C283.951 172.912 282.789 175.015 282.998 175.213C283.204 175.407 285.383 175.291 287.019 176.741C289.396 178.848 289.736 182.914 291.323 185.455C295.363 191.925 300.896 197.472 304.502 204.303L301.468 185.317C298.21 178.65 297.276 171.108 294.475 164.288C293.144 161.05 284.268 150.393 292.931 152.316C293.321 158.869 297.924 164.394 300.21 170.565C303.583 179.67 305.322 190.583 307.879 199.102C309.143 203.312 322.197 242.315 324.516 242.323C336.896 218.024 346.567 184.276 344.075 156.725C342.488 139.191 327.792 119.726 324.253 101.484C318.843 73.6066 334.22 25.8033 349.441 2.0028C350.269 0.709293 349.527 -0.408962 352.038 0.137648L352.027 0.141821ZM334.001 115.237C329.607 114.448 333.39 119.474 335.013 118.228L334.001 115.237ZM407.649 306.978C415.987 298.336 424.213 277.044 408.771 272.114C406.187 271.29 396.753 273.501 393.769 274.584C384.988 277.772 377.526 295.543 374.279 304.136C372.099 309.903 367.847 316.009 375.976 317.977C384.454 320.028 401.669 313.176 407.649 306.98V306.978ZM421.086 404.477C429.846 408.478 439.419 415.757 449.601 415.578C467.13 415.267 477.41 395.51 456.385 388.706C447.121 385.708 437.446 390.461 429.75 395.643C428.24 396.661 419.943 402.92 421.086 404.477ZM231.929 623.676C233.41 622.265 217.236 613.991 215.98 613.113C204.33 604.959 193.147 591.159 181.186 584.837C175.017 581.576 159.398 579.667 154.845 586.128C149.854 593.209 151.977 605.176 159.341 609.704C160.71 610.544 176.719 614.056 173.878 616.676C156.461 609.462 131.346 638.15 149.639 650.434C157.418 655.659 171.809 654.528 179.814 650.136C186.753 646.329 195.742 640.04 203.231 635.519C206.539 633.523 213.413 627.539 216.174 626.444C220.233 624.833 227.289 625.791 231.929 623.673V623.676Z" fill="#959595"/>
<path d="M141.859 463.544C142.013 463.461 142.462 461.422 143.596 460.519C149.817 455.566 151.753 462.336 148.891 465.077C147.527 466.383 139.137 469.263 136.492 470.687C120.729 479.172 103.638 487.415 91.8478 501.106C62.0798 535.678 33.0605 580.64 18.4403 623.866C-2.55347 685.931 -0.670158 763.577 15.4537 826.606C16.3881 830.257 17.7834 834.108 18.5613 837.58C18.8971 839.08 19.3893 840.256 17.2724 839.868C13.6434 838.08 13.0428 826.105 12.0187 822.08C11.3659 819.512 9.4138 817.253 8.96956 815.137C-2.93097 758.576 -4.65369 682.324 14.0647 626.494C30.6954 576.89 59.235 537.779 90.8196 497.071C92.8113 494.503 95.8855 492.669 97.7209 489.921C97.9753 488.456 90.8821 480.61 90.8821 477.044C90.8821 474.641 93.4871 473.237 93.8249 470.971C94.2087 468.397 92.7821 466.346 92.9177 464.149C93.5038 454.625 95.5206 453.839 99.2121 446.418C100.797 443.23 100.23 439.212 104.155 436.86C113.822 431.069 125.875 436.545 136.309 434.471L161.881 437.524C161.722 435.154 161.862 432.982 162.559 430.689C182.295 365.717 286.598 388.487 272.744 458.814L260.964 487.09C256.332 487.92 252.488 485.972 247.531 486.656C243.159 487.261 239.034 491.348 234.337 492.471C221.83 495.462 201.56 495.427 190.364 488.594C188.005 487.155 176.828 474.495 178.891 472.553C183.068 471.693 182.922 475.824 184.887 478.054C198.727 493.766 221.406 493.138 240.137 487.261C242.579 486.495 244.321 484.113 247.506 483.623C251.938 482.94 255.644 484.664 259.932 484.54C260.574 481.096 261.463 475.941 262.727 472.818C267.661 460.613 272.074 459.038 269.863 443.117C269.59 441.148 269.048 438.888 267.461 437.534C258.507 443.622 247.996 443.962 237.724 441.227C230.228 439.23 223.949 432.512 215.838 434.939L214.903 438.515C212.955 437.755 213.408 435.621 211.005 434.941C204.584 433.124 196.975 434.62 203.022 441.905C205.055 444.354 207.816 443.271 208.905 445.512C203.676 443.478 201.678 448.581 199.203 449.324C196.921 450.008 189.619 449.822 187.584 448.585C185.179 447.127 186.514 443.155 179.606 444.721C174.169 445.954 168.396 457.285 162.381 457.558C159.449 457.692 160.606 455.253 162.888 455.049L161.866 452.518L158.88 453.528L158.894 451.548C161.81 451.725 161.47 447.786 161.879 445.516L164.388 446.507L164.882 444.523C159.365 446.065 161.105 439.593 155.434 440.509C152.341 441.01 148.134 441.707 144.52 441.219C143.091 441.024 140.578 438.331 137.859 439.522C136.624 440.674 142.259 446.599 138.363 445.529C136.68 445.066 135.062 439.781 134.809 439.522C134.461 439.168 132.58 440.447 131.51 440.248C130.38 440.04 129.447 438.147 127.856 438.521L127.337 444.529C124.974 444.365 123.301 440.315 120.102 439.677C114.512 438.561 110.635 442.047 105.834 444.014C108.207 448.781 113.196 443.841 115.837 446.522C115.401 443.134 115.674 442.5 118.829 441.517L117.824 446.518L115.837 446.522C116.01 446.697 115.576 447.861 115.983 448.276C116.27 448.569 122.248 449.512 123.349 451.502C127.36 447.434 121.703 446.9 119.839 444.529C125.088 443.578 124.836 449.382 129.339 445.483L130.442 447.607L134.282 446.609C135.973 446.918 135.579 450.185 136.422 451.502C137.216 452.743 140.318 452.051 137.884 455.049L140.847 456.019L131.858 458.535L132.857 454.544L128.84 453.524L129.862 451.045L127.868 450.551C125.785 452.989 126.819 454.633 125.326 456.536C119.724 455.115 118.706 452.574 112.835 455.543L113.855 459.54L119.349 457.542L118.844 460.529C124.582 460.615 130.196 455.96 133.846 462.052L129.862 461.539C127.368 464.13 137.041 465.703 138.226 465.47C138.908 465.334 138.789 464.122 139.625 463.594C140.265 463.189 141.521 463.726 141.861 463.542L141.867 465.538H143.859V463.548L141.861 463.542L141.859 463.544ZM225.926 397.496L220.059 397.638L218.405 401.485L214.411 398.491L212.424 401.472L207.91 398.923L205.91 401.479C209.187 401.892 212.042 405.783 213.527 401.456C214.428 401.333 215.348 401.368 216.209 401.673C217.099 401.988 225.99 409.465 224.921 410.492C219.429 412.636 221.421 409.371 219.306 408.628C216.294 407.571 211.896 409.934 208.92 406.494C209.009 410.35 215.031 409.899 213.908 414.495H210.914L211.91 411.508L206.911 412.513L209.904 418.499L206.544 418.545L204.894 408.497L200.903 409.488L199.906 406.498L203.904 413.49C202.406 413.608 200.861 413.293 199.568 412.526C198.679 411.998 199.451 410.114 197.908 410.504C197.826 413.698 200.711 415.424 202.924 417.007L200.538 419.4L196.902 417.51L200.406 423.506C200.9 419.899 206.327 423.013 208.945 421.912C210.348 421.321 211.762 419.1 211.929 417.51C214.964 417.56 215.108 421.132 218.897 419.997C217.984 422.187 216.712 423.794 214.102 422.242C213.562 421.92 214.553 420.086 212.92 420.514C213.193 422.371 214.013 424.098 214.023 426.03C214.032 427.795 211.133 432.467 213.406 432.494C214.094 432.502 216.734 429.393 219.423 429.41C221.807 429.423 223.365 431.932 225.402 431.519L227.423 427.535L229.926 430.507L226.929 431.012C230.278 432.439 233.799 437.376 236.936 433.983C237.856 432.99 237.668 431.304 238.179 430.768C239.232 429.663 244.532 430.032 245.933 431.012C244.415 433.576 238.331 431.667 238.94 435.519L250.934 434.509C251.21 432.855 248.288 433.395 247.939 431.978C246.774 427.236 256.928 427.357 256.08 422.661L261.957 422.507C262.462 419.35 261.707 419.834 259.433 418.497C258.614 420.533 258.472 420.869 255.988 420.491C256.47 416.819 247.516 413.112 254.943 412.008C253.79 406.945 248.678 408.806 247.383 407.627C246.05 406.417 246.329 404.172 245.28 403.394C243.806 402.301 239.908 403.559 237.943 402.503L239.943 406.496L241.948 404.496C247.451 406.162 239.176 411.545 237.937 410.492C243.873 402.453 227.24 401.675 221.928 402.488L225.926 397.5V397.496ZM226.935 400.488L228.906 398.986L227.419 397.49L226.935 400.488ZM205.904 404.487L202.421 398.577C198.304 401.383 190.612 399.828 200.379 404.5L200.894 401.005C204.306 398.443 202.029 405.251 205.904 404.485V404.487ZM230.429 399.486V400.488C231.079 400.154 231.079 399.82 230.429 399.486ZM236.934 401.479L235.417 399.493L232.936 400.995L236.934 401.479ZM195.924 410.498C200.133 409.173 194.671 406.014 191.903 405.497C191.311 408.931 196.266 406.644 195.924 410.498ZM186.885 411.499L181.901 412.484C184.531 413.748 185.976 416.657 186.885 411.499ZM195.901 415.492L192.908 412.501C192.571 414.326 194.008 415.824 195.901 415.492ZM175.879 415.511H173.888V416.492H175.879V415.511ZM196.902 430.505C195.086 427.238 198.122 424.695 195.359 421.551C192.032 417.764 186.985 419.523 186.047 424.249C184.881 430.128 192.631 430.8 196.902 430.505ZM172.878 420.512L170.882 420.516L172.388 422.502L172.878 420.51V420.512ZM180.388 420.506V421.507C181.039 421.173 181.039 420.84 180.388 420.506ZM178.883 425.505C179.907 424.466 176.895 421.493 175.89 422.513C174.866 423.552 177.877 426.525 178.883 425.505ZM262.956 423.518L258.958 423.514V425.505C260.824 425.763 262.42 425.509 262.956 423.518ZM208.77 427.643C207.003 424.511 197.111 424.468 198.975 430.9C200.214 434.705 211.331 432.183 208.77 427.643ZM263.955 428.523C262.562 428.427 260.868 428.83 259.567 428.39C257.786 427.787 258.657 425.329 256.964 425.517L256.918 430.424L252.972 432.01L255.448 435.502L263.955 428.523ZM182.885 426.516L180.889 426.521L182.395 428.507L182.885 426.516ZM267.945 431.488C267.334 424.509 258.755 434.974 265.955 435.512L265.404 432.439L267.945 431.488ZM183.602 430.647C181.11 431.34 178.305 437.296 180.86 439.055C184.626 441.646 191.665 440.536 193.874 436.019C191.818 433.543 186.964 429.713 183.602 430.647ZM189.209 442.821C185.344 447.133 195.269 449.169 198.604 447.803C204.263 445.485 200.873 439.107 196.4 437.488C195.768 437.488 189.851 442.103 189.211 442.819L189.209 442.821ZM124.344 438.521V439.522C124.994 439.189 124.994 438.855 124.344 438.521ZM167.873 438.527L165.877 438.531L167.383 440.518L167.873 438.525V438.527ZM131.844 448.535L129.848 448.539L131.354 450.526L131.844 448.535ZM110.833 451.523C111.319 451.141 109.085 448.873 107.832 449.541C107.346 449.923 109.58 452.19 110.833 451.523ZM104.822 457.533C106.207 456.161 100.055 450.25 99.8274 456.528L104.822 457.533ZM110.827 455.543H108.835V457.533H110.827V455.543ZM104.822 460.552H102.831V461.533H104.822V460.552ZM128.803 463.596C126.659 464.677 118.225 461.132 117.843 461.547C117.365 462.067 117.83 464.397 118.809 465.094C121.048 466.686 125.975 462.382 128.35 467.543L128.803 463.596ZM107.819 464.539V462.547H106.839V464.539H107.819ZM114.831 463.554H111.838V464.535H114.831V463.554ZM101.825 468.539L98.8325 465.547C98.4946 467.372 99.9316 468.87 101.825 468.539ZM121.841 473.544C118.859 467.427 117.415 472.277 112.835 470.558L113.841 473.548C117.824 471.184 117.812 472.836 121.841 473.544ZM98.8179 474.564H96.8261V475.544H98.8179V474.564ZM112.335 474.553V475.555C112.986 475.221 112.986 474.887 112.335 474.553ZM101.325 478.557V479.558C101.976 479.225 101.976 478.891 101.325 478.557ZM107.819 481.555V479.563H106.839V481.555H107.819ZM102.326 480.56V481.561C102.977 481.227 102.977 480.894 102.326 480.56ZM102.824 483.568L97.8272 482.565V484.048L100.336 486.56L102.814 485.047L102.824 483.568Z" fill="#959595"/>
<path d="M322.998 936.969C323.882 937.926 323.137 939.309 321.736 940.225C300.256 954.254 267.61 973.923 242.374 977.935C229.987 979.905 214.76 980.163 203.239 980.579C200.136 980.691 197.026 980.887 193.906 980.998C194.3 975.607 201.769 978.768 205.056 978.457C216.687 977.355 228.329 976.153 239.738 974.305C263.274 970.493 295.163 954.936 315.35 941.817C317.533 940.398 318.72 936.428 323 936.967L322.998 936.969Z" fill="#959595"/>
<path d="M20.7478 842.883C23.0295 849.319 25.38 856.694 28.3937 862.772C33.1009 872.266 41.2369 879.867 44.77 889.923C41.7083 886.589 38.34 883.138 35.7372 879.429C32.8215 875.271 26.623 866.007 24.3163 861.889C23.8679 861.088 18.9104 845.42 18.7623 844.362C18.487 842.403 19.1398 842.793 20.7478 842.883Z" fill="#959595"/>
<path d="M67.5254 915.215C68.3117 915.849 68.5745 918.19 69.7883 919.456C77.7012 927.695 88.3315 933.464 93.3308 943.952C89.5996 942.648 88.5922 939.049 86.3481 936.91C79.8473 930.712 74.775 926.954 68.3493 919.903C66.4493 917.816 62.9705 917.662 63.8047 913.948C64.86 914.679 66.8163 914.647 67.5233 915.219L67.5254 915.215Z" fill="#959595"/>
<path d="M192.891 979.014C192.593 980.353 187.442 980.796 186.39 980.802C181.969 980.827 167.595 979.164 163.955 977.422C162.95 976.942 162.214 975.745 161.369 975.002L160.37 977.032C156.808 973.496 149.141 977.345 149.875 970.994C152.195 973.446 154.118 971.751 156.889 972.371C160.224 973.118 163.225 974.785 166.838 975.446C175.41 977.013 184.33 976.852 192.895 979.014H192.891Z" fill="#959595"/>
<path d="M250.699 464.297C243.891 470.846 237.678 456.859 246.717 456.743C250.697 456.69 253.245 461.85 250.699 464.297Z" fill="#408E85"/>
<path d="M282.383 135.86C283.824 137.844 292.077 149.936 290.972 151.259C289.514 151.607 286.748 148.471 286.148 147.624C284.239 144.927 283.361 141.274 281.826 138.853C280.631 136.97 273.336 133.141 279.453 131.251C280.973 132.467 281.267 134.324 282.383 135.86Z" fill="#959595"/>
<path d="M106.824 953.976C105.56 955.153 94.2937 947.74 95.8266 943.977C97.3241 942.381 108.173 952.72 106.824 953.976Z" fill="#959595"/>
<path d="M110.833 955.983C110.41 955.591 107.836 955.75 107.832 953.991L110.337 953.941C111.102 954.199 110.737 955.921 110.835 955.983C112.487 957.041 115.574 957.615 117.47 958.38L125.843 964.988C121.635 963.705 114.946 960.538 111.521 958.013C110.552 957.298 110.929 956.071 110.837 955.985L110.833 955.983Z" fill="#959595"/>
<path d="M278.967 130.237C276.343 130.331 272.458 128.439 270.969 126.256L274.929 125.706L278.969 130.239L278.967 130.237Z" fill="#959595"/>
<path d="M49.7797 897.926C46.4657 897.986 45.3937 894.786 45.792 891.926C47.9986 893.094 50.2469 895.113 49.7797 897.926Z" fill="#959595"/>
<path d="M375.033 23.1517L377.037 29.1561C375.172 28.743 370.086 22.8805 375.033 23.1517Z" fill="#959595"/>
<path d="M233.932 125.232C231.452 125.478 228.659 125.326 228.933 122.244C229.804 121.383 234.679 124.694 233.932 125.232Z" fill="#959595"/>
<path d="M213.911 443.524L210.918 443.522L210.922 442.038L213.421 439.529L213.911 443.524Z" fill="#959595"/>
<path d="M241.933 509.591H239.941V513.584H241.933V509.591Z" fill="#959595"/>
<path d="M52.7819 898.938C52.7652 902.607 49.8057 902.607 49.7891 898.938H52.7819Z" fill="#959595"/>
<path d="M140.858 446.539C140.321 448.529 138.726 448.783 136.859 448.525V446.534L140.858 446.539Z" fill="#959595"/>
<path d="M135.847 965.997V967.988C134.002 968.23 132.934 968.027 131.854 966.488L135.847 965.997Z" fill="#959595"/>
<path d="M241.929 523.598C238.986 522.787 241.234 519.945 240.949 517.598H241.929V523.598Z" fill="#959595"/>
<path d="M156.865 454.542H154.873V457.533H156.865V454.542Z" fill="#959595"/>
<path d="M237.93 127.26L237.44 129.24L233.932 126.254L237.93 127.26Z" fill="#959595"/>
<path d="M369.035 15.1401H367.045L367.049 12.1421L369.03 13.6588L369.035 15.1401Z" fill="#959595"/>
<path d="M59.7886 906.945L59.7824 908.426L57.801 909.941L57.7969 906.945H59.7886Z" fill="#959595"/>
<path d="M367.039 10.1311L365.043 10.1353L365.047 7.14355L366.027 7.14564L367.039 10.1311Z" fill="#959595"/>
<path d="M241.929 503.584H240.949V507.577H241.929V503.584Z" fill="#959595"/>
<path d="M129.847 454.546L127.856 456.538L127.852 454.542L129.847 454.546Z" fill="#959595"/>
<path d="M380.039 30.1636H379.059V33.1553H380.039V30.1636Z" fill="#959595"/>
<path d="M226.926 122.23L224.93 122.236L224.936 120.24L226.926 122.23Z" fill="#959595"/>
<path d="M152.861 455.532L150.865 455.526L152.371 453.54L152.861 455.532Z" fill="#959595"/>
<path d="M241.929 528.607H240.949V531.599H241.929V528.607Z" fill="#959595"/>
<path d="M241.929 525.605H240.949V527.597H241.929V525.605Z" fill="#959595"/>
<path d="M113.326 442.545C113.881 443.182 115.341 443.849 114.346 444.507C113.865 443.92 112.338 443.242 113.326 442.545Z" fill="#959595"/>
<path d="M151.365 459.54C152.016 459.874 152.016 460.208 151.365 460.542V459.54Z" fill="#959595"/>
<path d="M238.928 424.509C238.211 426.285 235.816 433.912 233.447 433.512C230.663 433.04 235.057 427.812 233.038 426.078L234.423 424.829L238.926 424.507L238.928 424.509Z" fill="#959595"/>
<path d="M246.943 419.517C248.13 419.782 248.989 418.607 249.955 418.987C256.7 421.639 252.082 432.041 246.943 419.517Z" fill="#959595"/>
<path d="M218.926 424.499C218.493 422.796 220.426 423.894 220.822 423.397C221.352 422.734 218.561 419.156 221.911 418.507L224.906 424.011C223.287 426.619 221.214 424.378 218.926 424.499Z" fill="#959595"/>
<path d="M243.935 422.507C242.89 425.897 246.45 424.624 245.935 427.507L240.936 426.5L241.426 423.495L243.935 422.507Z" fill="#959595"/>
<path d="M247.847 414.409L243.945 415.496C243.453 413.03 246.012 412.811 247.449 411.505L247.847 414.409Z" fill="#959595"/>
<path d="M217.913 410.502C218.297 412.903 217.44 414.752 214.916 414.491L215.925 410.494L217.913 410.502Z" fill="#959595"/>
<path d="M225.919 415.507V418.499C224.676 419.842 219.735 414.445 225.919 415.507Z" fill="#959595"/>
<path d="M229.925 404.498V406.488L224.93 406.484L224.934 405.505L229.925 404.498Z" fill="#959595"/>
<path d="M234.931 405.503L231.94 408.495L231.934 405.497L234.931 405.503Z" fill="#959595"/>
<path d="M243.934 410.502H240.941V412.492H243.934V410.502Z" fill="#959595"/>
<path d="M218.913 425.515V427.507L215.916 427.501L217.432 425.521L218.913 425.515Z" fill="#959595"/>
<path d="M235.936 417.493L238.928 414.501C239.266 416.327 237.829 417.825 235.936 417.493Z" fill="#959595"/>
<path d="M241.936 420.516L240.437 422.488L238.939 421.002L241.936 420.516Z" fill="#959595"/>
<path d="M228.923 410.502H226.932V412.492H228.923V410.502Z" fill="#959595"/>
<path d="M245.941 419.496L243.945 419.5L243.949 417.504L245.941 419.496Z" fill="#959595"/>
<path d="M242.933 415.511H240.941V416.492H242.933V415.511Z" fill="#959595"/>
<path d="M229.924 421.518V422.498L226.945 423.018L228.443 421.518H229.924Z" fill="#959595"/>
<path d="M230.428 414.501C231.078 414.835 231.078 415.169 230.428 415.503V414.501Z" fill="#959595"/>
<path d="M251.445 415.501C252.096 415.835 252.096 416.168 251.445 416.502V415.501Z" fill="#959595"/>
<path d="M235.432 418.505C236.082 418.839 236.082 419.172 235.432 419.506V418.505Z" fill="#959595"/>
<path d="M231.971 623.718C233.452 622.307 217.278 614.033 216.023 613.155C204.372 605.001 193.189 591.2 181.228 584.879C175.059 581.618 159.44 579.709 154.887 586.17C149.896 593.251 152.019 605.218 159.383 609.746C160.752 610.586 176.761 614.098 173.92 616.718C156.503 609.504 131.388 638.192 149.681 650.476C157.461 655.7 171.851 654.57 179.856 650.178C186.795 646.371 195.784 640.082 203.273 635.561C206.581 633.565 213.455 627.581 216.217 626.486C220.275 624.875 227.331 625.833 231.971 623.715V623.718Z" fill="#BB0A1E"/>
</svg>
