<svg width="104" height="50" viewBox="0 0 104 50" fill="none" xmlns="http://www.w3.org/2000/svg">
<g clip-path="url(#clip0_2114_875)">
<path d="M24.0591 0H0V24.0057H24.0591V0Z" fill="#004C45"/>
<path d="M0 24.0054V37.4323C0 43.2747 4.74693 48.0108 10.6024 48.0108H24.0591V24.0054H0Z" fill="#4F242F"/>
<path d="M48.1177 0H24.0586V24.0057H48.1177V0Z" fill="#CCBF2E"/>
<path d="M48.1177 24.0056H24.0586V48.0111H48.1177V24.0056Z" fill="#00B9B2"/>
<path d="M36.538 16.4489H33.5733V12.7927H35.7645C37.7716 12.7927 38.6187 13.7665 38.6187 14.7587C38.6187 15.7508 37.79 16.4489 36.538 16.4489ZM35.9119 7.51983C37.0719 7.51983 38.0111 8.12609 38.0111 9.22842C38.0111 10.1838 37.256 11.1209 35.3411 11.1209H33.5733V7.51983H35.9119ZM38.1951 11.8006C39.7787 11.3413 40.4415 10.1838 40.4415 8.98969C40.4415 6.85848 38.5819 5.57227 36.0224 5.57227H31.9161C31.4189 5.57227 31.1426 5.84797 31.1426 6.34405V17.6614C31.1426 18.1575 31.4189 18.4332 31.9161 18.4332H36.5932C39.2631 18.4332 41.0492 17.0368 41.0492 14.9056C41.0492 13.4541 40.0918 12.0393 38.1951 11.8006Z" fill="white"/>
<path d="M8.93069 11.7916V7.51082H11.7479C12.9634 7.51082 13.755 8.41115 13.755 9.66039C13.755 10.8913 12.9818 11.7916 11.7479 11.7916H8.93069ZM15.1729 18.5344C15.891 18.5344 16.6093 18.3691 17.1985 18.0016C17.6036 17.7626 17.6405 17.3953 17.4377 16.9543L17.3089 16.697C17.0881 16.2562 16.8301 16.1825 16.3698 16.3664C16.1305 16.495 15.8542 16.5501 15.4861 16.5501C14.2338 16.5501 13.4421 14.8598 13.3131 13.5002C15.1729 13.0778 16.2409 11.5529 16.2409 9.64202C16.2409 7.38227 14.7678 5.47144 12.1346 5.47144H7.27351C6.77632 5.47144 6.5 5.74689 6.5 6.24296V17.5606C6.5 18.0567 6.77632 18.3324 7.27351 18.3324H8.15744C8.65462 18.3324 8.93069 18.0567 8.93069 17.5606V13.629H11.0667C11.1955 15.1169 12.0426 18.5344 15.1729 18.5344Z" fill="white"/>
<path d="M13.4159 42.6409C15.1099 42.6409 16.3254 42.1632 17.3749 41.4468C17.7246 41.1894 17.743 40.8589 17.467 40.4362L17.1722 40.0136C16.8962 39.591 16.5462 39.5543 16.0859 39.8116C15.3126 40.2524 14.3366 40.5097 13.4159 40.5097C10.5619 40.5097 8.86764 38.452 8.86764 36.0083C8.86764 33.5647 10.5619 31.5072 13.4159 31.5072C14.3366 31.5072 15.3126 31.7643 16.0859 32.2053C16.5462 32.4623 16.8962 32.4256 17.1722 32.0033L17.467 31.5806C17.743 31.158 17.6878 30.7905 17.2827 30.4967C16.2515 29.8167 15.0547 29.376 13.4159 29.376C9.05194 29.376 6.40039 32.4256 6.40039 36.0083C6.40039 39.591 9.05194 42.6409 13.4159 42.6409Z" fill="white"/>
<path d="M31.3475 42.4386H40.8305C41.3277 42.4386 41.604 42.1629 41.604 41.667V41.1893C41.604 40.6932 41.3277 40.3992 40.8305 40.3992H33.7598L40.8305 31.6537C41.07 31.3783 41.162 31.0842 41.162 30.6983V30.3494C41.162 29.8533 40.8857 29.5776 40.3885 29.5776H31.8631C31.3659 29.5776 31.0898 29.8533 31.0898 30.3494V30.8271C31.0898 31.3232 31.3659 31.617 31.8631 31.617H37.9029L30.9239 40.3624C30.6662 40.6565 30.5742 40.932 30.5742 41.3179V41.667C30.5742 42.1629 30.8503 42.4386 31.3475 42.4386Z" fill="white"/>
<path d="M44.2868 28.8287C44.2868 28.9069 44.2676 28.9678 44.2298 29.0108C44.1917 29.0538 44.14 29.0755 44.0747 29.0755H43.7135V28.5819H44.0669C44.1269 28.5819 44.1786 28.602 44.222 28.6425C44.2651 28.683 44.2868 28.7452 44.2868 28.8287ZM44.7461 29.9766L44.3417 29.3263C44.4358 29.2895 44.5117 29.2244 44.5694 29.1303C44.6269 29.0362 44.6559 28.9359 44.6559 28.8287C44.6559 28.758 44.642 28.6891 44.6145 28.6209C44.5871 28.5532 44.549 28.4916 44.5006 28.4368C44.4522 28.3819 44.3939 28.3377 44.3259 28.3037C44.2578 28.2697 44.1847 28.2526 44.106 28.2526H43.3403V29.9766H43.7135V29.3967H43.9648L44.3259 29.9766H44.7461ZM45.2448 29.1263C45.2448 29.3041 45.2121 29.4679 45.1465 29.6181C45.0812 29.7683 44.9915 29.8968 44.8777 30.004C44.7638 30.1111 44.6297 30.1947 44.4751 30.2548C44.3206 30.3149 44.1544 30.3448 43.9764 30.3448C43.7931 30.3448 43.625 30.3134 43.4719 30.2508C43.3189 30.1881 43.1865 30.1013 43.0753 29.9904C42.9642 29.8792 42.8772 29.7494 42.8141 29.6005C42.7514 29.4516 42.7201 29.2911 42.7201 29.1185C42.7201 28.9487 42.7514 28.7902 42.8141 28.6425C42.8772 28.4951 42.9642 28.3663 43.0753 28.2566C43.1865 28.147 43.3189 28.0607 43.4719 27.998C43.625 27.9354 43.7931 27.904 43.9764 27.904C44.1597 27.904 44.3286 27.9354 44.4829 27.998C44.6375 28.0607 44.7708 28.147 44.8835 28.2566C44.996 28.3663 45.0845 28.4956 45.1485 28.6446C45.2126 28.7935 45.2448 28.954 45.2448 29.1263ZM45.3527 29.6827C45.4274 29.5104 45.4647 29.3222 45.4647 29.1185C45.4647 28.9175 45.4274 28.7306 45.3527 28.5583C45.2781 28.3859 45.174 28.237 45.0406 28.1118C44.907 27.9862 44.7494 27.8879 44.5674 27.8159C44.3854 27.744 44.1885 27.7083 43.9764 27.7083C43.7644 27.7083 43.5682 27.744 43.3875 27.8159C43.2069 27.8879 43.0504 27.9862 42.9183 28.1118C42.7862 28.237 42.6833 28.3859 42.6099 28.5583C42.5368 28.7306 42.5 28.9175 42.5 29.1185C42.5 29.3222 42.5368 29.5104 42.6099 29.6827C42.6833 29.8551 42.7862 30.0047 42.9183 30.1313C43.0504 30.258 43.2069 30.3572 43.3875 30.4291C43.5682 30.5011 43.7644 30.5368 43.9764 30.5368C44.1885 30.5368 44.3854 30.5011 44.5674 30.4291C44.7494 30.3572 44.907 30.258 45.0406 30.1313C45.174 30.0047 45.2781 29.8551 45.3527 29.6827Z" fill="white"/>
<path d="M100.485 45.3369C100.748 44.6175 101.358 44.4228 101.85 44.4228C102.317 44.4228 102.91 44.5835 103.131 45.3369H100.485ZM101.952 48.1043C102.486 48.1043 103.055 47.9773 103.547 47.5796C103.742 47.4188 103.742 47.241 103.606 47.0973L103.547 47.0294C103.411 46.8941 103.275 46.8855 103.114 46.9871C102.749 47.2327 102.376 47.3426 101.96 47.3426C101.036 47.3426 100.383 46.767 100.408 45.9802H103.699C103.903 45.9802 104.022 45.87 103.996 45.667C103.877 44.3128 102.902 43.6781 101.833 43.6781C100.51 43.6781 99.5429 44.6683 99.5429 45.9039C99.5429 47.1142 100.459 48.1043 101.952 48.1043ZM95.0983 48.0112H98.7117C98.8982 48.0112 99.017 47.9013 99.0255 47.7066V47.6218C99.0255 47.4274 98.9068 47.3172 98.7117 47.3172H96.0228L98.6948 44.465C98.7966 44.3551 98.839 44.2366 98.839 44.0927V44.0759C98.839 43.8812 98.7288 43.7712 98.5337 43.7712H95.2848C95.0899 43.7712 94.9712 43.8812 94.9712 44.0759V44.1604C94.9712 44.3465 95.0899 44.465 95.2848 44.465H97.6175L94.9457 47.3089C94.8353 47.4274 94.7929 47.5373 94.7929 47.6897V47.7066C94.7929 47.9013 94.9031 48.0112 95.0983 48.0112ZM91.6122 48.1043C92.2992 48.1043 92.842 47.7743 93.0289 47.1819V47.7066C93.0289 47.9013 93.139 48.0112 93.3342 48.0112H93.5886C93.7837 48.0112 93.9025 47.9013 93.9025 47.7066V44.0759C93.9025 43.8812 93.7837 43.7712 93.5886 43.7712H93.3342C93.139 43.7712 93.0289 43.8812 93.0289 44.0759V45.76C93.0289 47.038 92.1467 47.3426 91.7055 47.3426C91.2559 47.3426 90.8657 47.0211 90.8657 46.1578V44.0759C90.8657 43.8812 90.7469 43.7712 90.552 43.7712H90.2974C90.1025 43.7712 89.9921 43.8812 89.9921 44.0759V46.1663C89.9921 47.495 90.6708 48.1043 91.6122 48.1043ZM85.6155 45.3369C85.8785 44.6175 86.4891 44.4228 86.981 44.4228C87.4477 44.4228 88.0414 44.5835 88.2618 45.3369H85.6155ZM87.0828 48.1043C87.6173 48.1043 88.1856 47.9773 88.6775 47.5796C88.8726 47.4188 88.8727 47.241 88.7368 47.0973L88.6775 47.0294C88.5419 46.8941 88.406 46.8855 88.2449 46.9871C87.88 47.2327 87.5069 47.3426 87.0914 47.3426C86.1666 47.3426 85.5136 46.767 85.5391 45.9802H88.8303C89.0338 45.9802 89.1525 45.87 89.127 45.667C89.0083 44.3128 88.0328 43.6781 86.9641 43.6781C85.641 43.6781 84.6738 44.6683 84.6738 45.9039C84.6738 47.1142 85.59 48.1043 87.0828 48.1043ZM83.656 48.1043C83.7407 48.1043 84.0292 48.1043 84.3176 47.969C84.5296 47.8673 84.572 47.7235 84.5296 47.6218L84.394 47.3512C84.3345 47.2495 84.2667 47.2327 84.1479 47.2749C83.9954 47.3426 83.834 47.3512 83.7662 47.3512C83.3931 47.3512 83.2743 47.1396 83.0282 46.7924L82.3243 45.7178L83.6306 44.1435C83.8002 43.9403 83.7238 43.7712 83.4523 43.7712H83.1301C82.969 43.7712 82.8502 43.8218 82.757 43.9488L81.459 45.5485V42.197C81.459 42.0023 81.3489 41.8923 81.1537 41.8923H80.8993C80.7042 41.8923 80.5854 42.0023 80.5854 42.197V47.7066C80.5854 47.9013 80.7042 48.0112 80.8993 48.0112H81.1537C81.3489 48.0112 81.459 47.9013 81.459 47.7066V45.8446L82.2903 47.1904C82.5532 47.5713 82.8417 48.1043 83.656 48.1043ZM77.0484 47.3426C76.1917 47.3426 75.6996 46.6825 75.6996 45.8868C75.6996 45.1 76.1917 44.4313 77.0484 44.4313C77.888 44.4313 78.4563 45.0491 78.4649 45.8868C78.4563 46.7248 77.888 47.3426 77.0484 47.3426ZM77.0822 50.0001C78.2614 50.0001 79.3216 49.3822 79.3216 47.9436V44.0759C79.3216 43.8812 79.2028 43.7712 79.0077 43.7712H78.7619C78.5667 43.7712 78.448 43.8812 78.448 44.0673V44.4396C78.0494 43.8726 77.498 43.6781 76.9297 43.6781C75.6572 43.6781 74.826 44.6766 74.826 45.8868C74.826 47.1056 75.6572 48.1043 76.9297 48.1043C77.498 48.1043 78.0494 47.9096 78.448 47.3426V47.8842C78.448 48.7815 77.888 49.2469 77.0739 49.2469C76.6413 49.2469 76.2255 49.1453 75.861 48.9169C75.6827 48.8067 75.5385 48.8238 75.4452 49.0185L75.3774 49.137C75.2924 49.306 75.3179 49.4585 75.4707 49.5601C75.861 49.8139 76.3443 50.0001 77.0822 50.0001ZM72.3829 48.0112H72.6376C72.8327 48.0112 72.9429 47.9013 72.9429 47.7066V46.3947C72.9429 44.6597 73.7063 44.5075 74.0117 44.5075C74.088 44.5075 74.1644 44.5158 74.2406 44.5329C74.3848 44.5667 74.4698 44.4821 74.4698 44.2706V44.025C74.4698 43.8557 74.4443 43.7119 74.266 43.6864L74.0795 43.6781C73.5707 43.6781 73.0871 44.0419 72.9429 44.7191V44.0759C72.9429 43.8812 72.8327 43.7712 72.6376 43.7712H72.3829C72.1881 43.7712 72.0693 43.8812 72.0693 44.0759V47.7066C72.0693 47.9013 72.1881 48.0112 72.3829 48.0112ZM68.8545 47.3426C68.0997 47.3426 67.4805 46.6994 67.4805 45.8954C67.4805 45.0914 68.0997 44.4396 68.8545 44.4396C69.6265 44.4396 70.2372 45.0914 70.2372 45.8954C70.2372 46.6994 69.6265 47.3426 68.8545 47.3426ZM68.8545 48.1043C70.1015 48.1043 71.1108 47.1142 71.1108 45.8868C71.1108 44.6766 70.1015 43.6781 68.8545 43.6781C67.6161 43.6781 66.6152 44.6683 66.6152 45.8868C66.6152 47.1225 67.6161 48.1043 68.8545 48.1043ZM62.1706 48.0112H65.7839C65.9705 48.0112 66.0893 47.9013 66.0978 47.7066V47.6218C66.0978 47.4274 65.9791 47.3172 65.7839 47.3172H63.0951L65.7671 44.465C65.8689 44.3551 65.9113 44.2366 65.9113 44.0927V44.0759C65.9113 43.8812 65.8008 43.7712 65.6059 43.7712H62.3571C62.162 43.7712 62.0432 43.8812 62.0432 44.0759V44.1604C62.0432 44.3465 62.162 44.465 62.3571 44.465H64.6897L62.0178 47.3089C61.9076 47.4274 61.8652 47.5373 61.8652 47.6897V47.7066C61.8652 47.9013 61.9754 48.0112 62.1706 48.0112Z" fill="#004C45"/>
<path d="M92.6134 36.1041C92.8764 35.3846 93.487 35.1899 93.9789 35.1899C94.4455 35.1899 95.0393 35.3506 95.2597 36.1041H92.6134ZM94.0807 38.8714C94.6152 38.8714 95.1835 38.7444 95.6754 38.3467C95.8705 38.186 95.8705 38.0081 95.7346 37.8642L95.6754 37.7965C95.5398 37.6612 95.4039 37.6526 95.2428 37.7543C94.8779 37.9998 94.5048 38.1097 94.0893 38.1097C93.1645 38.1097 92.5115 37.5342 92.537 36.747H95.8282C96.0316 36.747 96.1504 36.6371 96.1249 36.4341C96.0062 35.08 95.0307 34.445 93.962 34.445C92.6389 34.445 91.6717 35.4354 91.6717 36.6711C91.6717 37.8813 92.5879 38.8714 94.0807 38.8714ZM89.263 40.7672C89.9331 40.7672 90.688 40.4794 90.688 39.117V34.843C90.688 34.6483 90.5778 34.5384 90.3826 34.5384H90.1028C89.9076 34.5384 89.7889 34.6483 89.7889 34.843V39.2609C89.7889 39.7262 89.6023 40.0226 89.2206 40.0226C88.9491 40.0226 88.737 39.8787 88.737 39.6669V39.6078C88.737 39.5061 88.6521 39.4553 88.5588 39.4553H88.1433C88.0669 39.4553 88.0077 39.4893 87.9905 39.5484C87.9822 39.5824 87.9736 39.6417 87.9736 39.6923C87.9736 40.3101 88.4317 40.7672 89.263 40.7672ZM90.2467 33.7681C90.5861 33.7681 90.8491 33.5143 90.8491 33.1925C90.8491 32.8625 90.5947 32.6001 90.2467 32.6001C89.9076 32.6001 89.6616 32.8625 89.6616 33.1925C89.6616 33.5143 89.9076 33.7681 90.2467 33.7681ZM87.6091 38.7784H87.8634C88.0586 38.7784 88.1688 38.6684 88.1688 38.4737V34.843C88.1688 34.6483 88.0586 34.5384 87.8634 34.5384H87.6091C87.4139 34.5384 87.2952 34.6483 87.2952 34.843V38.4737C87.2952 38.6684 87.4139 38.7784 87.6091 38.7784ZM87.7278 33.7681C88.0669 33.7681 88.3299 33.5143 88.3299 33.1925C88.3299 32.8625 88.0755 32.6001 87.7278 32.6001C87.3884 32.6001 87.1424 32.8625 87.1424 33.1925C87.1424 33.5143 87.3884 33.7681 87.7278 33.7681ZM84.4452 38.7784H84.6996C84.8947 38.7784 85.0049 38.6684 85.0049 38.4737V37.1619C85.0049 35.4269 85.7683 35.2747 86.0736 35.2747C86.15 35.2747 86.2264 35.283 86.3028 35.2998C86.447 35.3338 86.5317 35.2493 86.5317 35.0374V34.7922C86.5317 34.6229 86.5063 34.479 86.328 34.4536L86.1415 34.445C85.6327 34.445 85.1491 34.809 85.0049 35.4862V34.843C85.0049 34.6483 84.8947 34.5384 84.6996 34.5384H84.4452C84.25 34.5384 84.1313 34.6483 84.1313 34.843V38.4737C84.1313 38.6684 84.25 38.7784 84.4452 38.7784ZM80.9505 38.7784H81.3915C81.5698 38.7784 81.6885 38.6936 81.7563 38.5329L83.1727 34.8853C83.2491 34.6737 83.1644 34.5384 82.9352 34.5384H82.6554C82.4774 34.5384 82.367 34.6143 82.2991 34.7836L81.1712 37.8219L80.0429 34.7836C79.9751 34.6143 79.8649 34.5384 79.6867 34.5384H79.4068C79.1776 34.5384 79.0929 34.6737 79.1693 34.8853L80.5857 38.5329C80.6536 38.6936 80.7723 38.7784 80.9505 38.7784ZM72.6888 38.7784H72.9434C73.1383 38.7784 73.2488 38.6684 73.2488 38.4737V36.7895C73.2488 35.5031 74.1309 35.2067 74.5719 35.2067C75.0214 35.2067 75.42 35.5199 75.42 36.3916V38.4737C75.42 38.6684 75.5305 38.7784 75.7256 38.7784H75.98C76.1751 38.7784 76.2939 38.6684 76.2939 38.4737V36.3833C76.2939 35.0546 75.6069 34.445 74.6652 34.445C73.9782 34.445 73.4353 34.7753 73.2488 35.3677V34.843C73.2488 34.6483 73.1383 34.5384 72.9434 34.5384H72.6888C72.4937 34.5384 72.3749 34.6483 72.3749 34.843V38.4737C72.3749 38.6684 72.4937 38.7784 72.6888 38.7784ZM67.9389 36.1041C68.2018 35.3846 68.8127 35.1899 69.3046 35.1899C69.771 35.1899 70.3648 35.3506 70.5854 36.1041H67.9389ZM69.4065 38.8714C69.9407 38.8714 70.509 38.7444 71.0011 38.3467C71.196 38.186 71.196 38.0081 71.0604 37.8642L71.0011 37.7965C70.8652 37.6612 70.7296 37.6526 70.5685 37.7543C70.2037 37.9998 69.8305 38.1097 69.4148 38.1097C68.4902 38.1097 67.8372 37.5342 67.8627 36.747H71.1536C71.3574 36.747 71.4761 36.6371 71.4506 36.4341C71.3319 35.08 70.3564 34.445 69.2877 34.445C67.9643 34.445 66.9974 35.4354 66.9974 36.6711C66.9974 37.8813 67.9134 38.8714 69.4065 38.8714ZM62.8753 36.1041C63.1382 35.3846 63.7489 35.1899 64.2407 35.1899C64.7074 35.1899 65.3012 35.3506 65.5215 36.1041H62.8753ZM64.3426 38.8714C64.8771 38.8714 65.4454 38.7444 65.9373 38.3467C66.1324 38.186 66.1324 38.0081 65.9968 37.8642L65.9373 37.7965C65.8016 37.6612 65.6657 37.6526 65.5046 37.7543C65.1398 37.9998 64.7667 38.1097 64.3512 38.1097C63.4267 38.1097 62.7734 37.5342 62.7989 36.747H66.0901C66.2935 36.747 66.4123 36.6371 66.3868 36.4341C66.268 35.08 65.2926 34.445 64.2239 34.445C62.9007 34.445 61.9336 35.4354 61.9336 36.6711C61.9336 37.8813 62.8498 38.8714 64.3426 38.8714Z" fill="#004C45"/>
</g>
<defs>
<clipPath id="clip0_2114_875">
<rect width="104" height="50" fill="white"/>
</clipPath>
</defs>
</svg>
